<svg id="Layer_1" data-name="Layer 1" xmlns="http://www.w3.org/2000/svg" viewBox="0 0 84.35 87.53"><title>icon-viber</title><path d="M76.36,10C69.61,2.29,57.53,0,45.45,0s-21.7.63-27.23,2.71C7.57,6.88,0,15.42,0,30.63c0,9,.06,22.14,2.25,29,3.07,9.59,13.51,16,20.88,16h1l2,11.88L39.1,76.27c12.9,0,28.87-1.46,36-8.54s9.21-17.3,9.21-29.59S83.12,17.71,76.36,10ZM61.11,54.75A12.16,12.16,0,0,1,56,60.54a12.28,12.28,0,0,1-2.23.72c-0.87-.27-1.7-0.45-2.47-0.78-8-3.37-15.34-7.73-21.17-14.4A56.07,56.07,0,0,1,22,33.47c-1-2.15-1.91-4.38-2.81-6.6-0.81-2,.39-4.12,1.65-5.64a13.06,13.06,0,0,1,4.36-3.34,2.77,2.77,0,0,1,3.5.85,45.92,45.92,0,0,1,5.42,7.72,3.71,3.71,0,0,1-1,5c-0.41.28-.78,0.62-1.17,0.94a3.9,3.9,0,0,0-.88.94,2.62,2.62,0,0,0-.17,2.27C33,41.4,36.46,45.92,42.21,48.36a5.7,5.7,0,0,0,2.91.72c1.78-.21,2.35-2.19,3.6-3.23a3.34,3.34,0,0,1,4.08-.18c1.31,0.84,2.58,1.75,3.84,2.67a43.83,43.83,0,0,1,3.62,2.8A3,3,0,0,1,61.11,54.75Zm-10.32-19c-0.54,0-.26,0-0.06,0a1.29,1.29,0,0,1-1.37-1.29,13.52,13.52,0,0,0-.25-1.7A4.8,4.8,0,0,0,47.38,30,4.51,4.51,0,0,0,46,29.34C45.33,29.15,44.66,29.2,44,29a1.21,1.21,0,0,1-1-1.41,1.26,1.26,0,0,1,1.33-1c4.05,0.3,6.95,2.43,7.36,7.29a3.41,3.41,0,0,1,0,1,1,1,0,0,1-.89.86A0.14,0.14,0,1,1,50.79,35.79ZM48.27,24.69a14.09,14.09,0,0,0-4-1.24c-0.6-.1-1.2-0.16-1.8-0.25a1.15,1.15,0,0,1-1.08-1.3,1.13,1.13,0,0,1,1.25-1.13,16.18,16.18,0,0,1,6.85,1.82,14.1,14.1,0,0,1,7.54,11c0,0.22.09,0.44,0.1,0.67,0,0.55.07,1.11,0.11,1.84a5,5,0,0,1-.1.74,1.18,1.18,0,0,1-2.23.12,3.28,3.28,0,0,1-.13-1,13.07,13.07,0,0,0-1.6-6.46A11.91,11.91,0,0,0,48.27,24.69Zm13.4,15.23a1.35,1.35,0,0,1-1.27-1.47c-0.11-1.51-.18-3-0.39-4.54A18.86,18.86,0,0,0,45,18c-1.17-.21-2.36-0.27-3.54-0.39-0.75-.08-1.72-0.13-1.89-1.07a1.29,1.29,0,0,1,1.26-1.46c0.2,0,.4,0,0.61,0,10.45,0.3-.2,0,0,0A21.35,21.35,0,0,1,62.29,33c0.31,1.79.43,3.63,0.56,5.44A1.27,1.27,0,0,1,61.67,39.91Z" style="fill:#7341a0"/></svg>