<svg id="Layer_4" data-name="Layer 4" xmlns="http://www.w3.org/2000/svg" viewBox="0 0 240.58 191.69"><title>Phone</title><path d="M240.45,137.9c-0.24,2.94-32.2,24.06-32.2,24.06A138.61,138.61,0,0,1,194.62,170c3.7-2.94,9.43-6.71,13.16-9.6,0,0,15.3-10.5,24-17.59,2.28-1.85,7.08-5.43,8-8l-0.15-1.49h0v-0.09h0c-0.32-2.45-2.2-4.74-5.77-6.33L101.61,75.8a21.31,21.31,0,0,1,.05,4l115,43.11L152,169.35,18.9,109.26c0.06-.07.8-0.49,2.09-1.19,6.64-3.64,27.79-14.82,44.13-23.44l0.06-.07c-0.24-.25-0.49-0.5-0.73-0.76s-0.55-.56-0.82-0.85-0.4-.47-0.6-0.7C62.67,81.84,62.31,81.43,62,81l-0.18-.23c-0.47-.59-0.94-1.19-1.38-1.81L60,78.33c-0.34-.49-0.69-1-1-1.49l-0.21-.35c-0.24-.38-0.47-0.77-0.69-1.15L10.61,100.49A13.24,13.24,0,0,0,8,103a8.86,8.86,0,0,0-1.33,2.32l-0.08.26c0.45,2.4,1.69,6.07,6.81,8.36l146.4,66.81c5.5,2.51,13.35,2.39,19.53,0-6.35,2.91-14.84,4.48-20.78,1.78L12.11,115.74c-3.25-1.48-5.19-3.89-5.65-6.26l0.64,7,0,0.48h0c0,0.1,0,.19.07,0.28s0.06,0.28.1,0.42,0.11,0.32.17,0.48,0.11,0.27.17,0.41,0.16,0.31.25,0.47l0.23,0.39c0.1,0.15.22,0.3,0.34,0.45l0.29,0.37c0.13,0.15.28,0.29,0.43,0.44L9.56,121l0,0h0c0.16,0.15.35,0.29,0.53,0.43s0.25,0.21.39,0.31,0.45,0.29.68,0.44,0.25,0.17.39,0.24c0.36,0.21.75,0.4,1.15,0.59l0,0,146.4,66.81a18,18,0,0,0,2.81,1c0.28,0.08.59,0.11,0.88,0.18,0.72,0.16,1.44.33,2.19,0.43,0.37,0,.76,0,1.14.08,0.69,0.06,1.39.13,2.09,0.14,0.42,0,.85,0,1.27-0.06,0.68,0,1.35,0,2-.1h0.06a24.83,24.83,0,0,0,11.69-4.08l52.83-37.95c3.23-2.32,4.47-4.63,4.42-7.63Zm-51.14,13.33a3.15,3.15,0,0,1-.79-1.73c-0.13-1.32.68-2.68,2.27-3.82a15,15,0,0,1,13.46-1.35c1.77,0.8,2.81,2,2.94,3.28a2.28,2.28,0,0,1,0,.26,4.55,4.55,0,0,1-2.25,3.56,13.74,13.74,0,0,1-6.58,2.27h0a13.84,13.84,0,0,1-6.89-.93A6,6,0,0,1,189.31,151.23Z" style="fill:#004b8d"/><path d="M114.35,1.83c-5.46-2.54-10.15-2.34-13.3,0L97.82,4.27c3.16-2.37,7.85-2.56,13.3,0,10.85,5,20.62,19,21.83,31.1,0.6,6-1,10.48-4.14,12.81L132,45.74c3.12-2.33,4.74-6.79,4.14-12.81C135,20.8,125.2,6.87,114.35,1.83Z" style="fill:#fff"/><path d="M124.53,20.25A32.9,32.9,0,0,0,122,16.78a36.82,36.82,0,0,0-13.15-10.7h0c-0.26-.12-0.51-0.2-0.77-0.3s-0.82-.35-1.22-0.48l-0.55-.16C105.87,5,105.41,4.85,105,4.75s-0.6-.1-0.9-0.16-0.63-.13-0.93-0.16a14,14,0,0,0-1.42-.08l-0.31,0c-0.32,0-.62.05-0.93,0.07s-0.47,0-.7.06-0.49.11-.73,0.17-0.53.1-.78,0.18-0.46.18-.69,0.27-0.48.17-.7,0.28a9.48,9.48,0,0,0-.93.55C95.84,6,95.73,6,95.62,6.11a8,8,0,0,0-.71.6c-0.13.12-.28,0.22-0.41,0.34a11.06,11.06,0,0,0-.77.9c-0.06.08-.14,0.15-0.2,0.23a6.92,6.92,0,0,0-.48.79,5.74,5.74,0,0,0-.32.53,12.19,12.19,0,0,0-.94,2.57c-0.07.26-.14,0.51-0.19,0.78a17.79,17.79,0,0,0-.32,3.2,22,22,0,0,0,.1,2.53,28.07,28.07,0,0,0,.73,4.05c0.12,0.46.25,0.93,0.39,1.4s0.24,0.85.39,1.27L93,25.46c0.24,0.7.5,1.39,0.79,2.09,0.15,0.35.32,0.7,0.47,1s0.35,0.79.54,1.19c0.28,0.57.59,1.14,0.9,1.7L95.91,32c0.34,0.61.71,1.2,1.08,1.8l0.21,0.35c0.32,0.49.66,1,1,1.46l0.42,0.62Q99.27,37.1,100,38c0.06,0.07.11,0.15,0.17,0.23,0.34,0.42.69,0.82,1.05,1.22,0.2,0.23.39,0.46,0.59,0.68s0.54,0.56.8,0.83,0.61,0.65.92,1,0.6,0.56.91,0.84l0.89,0.83c0.4,0.35.82,0.67,1.23,1l0.64,0.52c0.37,0.28.75,0.53,1.12,0.79s0.54,0.39.81,0.57,0.65,0.39,1,.59,0.67,0.42,1,.61,0.67,0.33,1,.5,0.67,0.35,1,.51h0c10.83,4.85,18.65-.74,17.48-12.48A36.14,36.14,0,0,0,124.53,20.25Zm-12,22.8c-0.19-.08-0.37-0.19-0.55-0.28s-0.63-.3-0.94-0.47L110.54,42c-0.31-.18-0.62-0.36-0.93-0.56l-0.43-.31c-0.33-.23-0.66-0.45-1-0.7L107.7,40c-0.3-.24-0.6-0.47-0.89-0.73s-0.35-.32-0.52-0.48l-0.8-.74c-0.21-.2-0.4-0.42-0.61-0.63s-0.45-.45-0.66-0.69-0.31-.36-0.46-0.54-0.5-.57-0.74-0.87l-0.08-.1c-0.36-.45-0.71-0.9-1.05-1.37l-0.32-.46c-0.6-.86-1.17-1.74-1.68-2.65l-0.27-.51c-0.2-.37-0.4-0.74-0.59-1.11-0.09-.18-0.16-0.36-0.25-0.54-0.17-.37-0.35-0.73-0.5-1.1-0.05-.12-0.09-0.23-0.13-0.35-0.18-.44-0.35-0.87-0.5-1.31-0.06-.19-0.11-0.38-0.17-0.57a21.34,21.34,0,0,1-.94-4.38,15.89,15.89,0,0,1-.06-2.16c0-.29,0-0.59,0-0.87a11.38,11.38,0,0,1,.37-1.93,9.21,9.21,0,0,1,.65-1.74c0.05-.1.12-0.18,0.17-0.28a6.72,6.72,0,0,1,.43-0.69l0.09-.1a7.44,7.44,0,0,1,.62-0.73,5.37,5.37,0,0,1,.58-0.49c0.08-.06.15-0.14,0.24-0.2a4.56,4.56,0,0,1,.56-0.33c0.12-.07.24-0.16,0.37-0.22s0.32-.12.48-0.19,0.36-.16.55-0.22a5.62,5.62,0,0,1,.59-0.13c0.17,0,.34-0.09.52-0.12s0.54-.05.82-0.07c0.13,0,.25,0,0.38,0s0.46,0,.68,0l0.59,0c0.2,0,.41.07,0.61,0.11s0.48,0.07.74,0.13,0.45,0.13.68,0.19,0.48,0.12.73,0.21,0.55,0.22.83,0.33,0.42,0.15.64,0.25c8,3.57,15.17,13.52,16,22.17,0.05,0.54.08,1.06,0.08,1.56,0,0.15,0,.28,0,0.42,0,0.35,0,.7-0.05,1,0,0.18-.05.34-0.08,0.52s-0.07.56-.13,0.82-0.1.34-.14,0.52a7.15,7.15,0,0,1-.2.7c-0.06.17-.14,0.33-0.21,0.49s-0.16.41-.26,0.6-0.18.29-.26,0.44-0.21.37-.33,0.53-0.21.25-.32,0.38-0.25.32-.39,0.46-0.25.21-.37,0.32C120.45,44.65,116.82,45,112.56,43Z" style="fill:#fff"/><path d="M123,32.75C122,25.38,115.89,17,109.28,14.12s-11.22.73-10.28,8.1,7.08,15.73,13.68,18.63S123.91,40.12,123,32.75Z" style="fill:#004b8d"/><path d="M76.27,84.89h0a0.34,0.34,0,0,0-.29.26,5.13,5.13,0,0,1-2.78,3.44,0.32,0.32,0,0,0-.19.33v0a0.34,0.34,0,0,0,.25.29,5.11,5.11,0,0,1,3.43,2.88,0.34,0.34,0,0,0,.33.2h0a0.33,0.33,0,0,0,.29-0.26,5.11,5.11,0,0,1,2.63-3.41,0.33,0.33,0,0,0,.18-0.32l0-.18a0.32,0.32,0,0,0-.24-0.28,5.15,5.15,0,0,1-3.23-2.77A0.29,0.29,0,0,0,76.27,84.89Z" style="fill:#fff"/><polygon points="216.54 109.2 147.81 160.53 10.43 94.79 79.91 58.66 216.54 109.2" style="fill:#148dd8"/><path d="M130.24,57.36h0a0.34,0.34,0,0,0-.29.26,5.13,5.13,0,0,1-2.78,3.44,0.32,0.32,0,0,0-.19.33v0a0.34,0.34,0,0,0,.25.29,5.11,5.11,0,0,1,3.43,2.88,0.34,0.34,0,0,0,.33.2h0a0.33,0.33,0,0,0,.29-0.26,5.11,5.11,0,0,1,2.63-3.41,0.33,0.33,0,0,0,.18-0.32l0-.18a0.32,0.32,0,0,0-.24-0.28,5.15,5.15,0,0,1-3.23-2.77A0.31,0.31,0,0,0,130.24,57.36Z" style="fill:#fff"/><path d="M79.11,3.09h0a0.34,0.34,0,0,0-.29.26A5.13,5.13,0,0,1,76,6.79a0.32,0.32,0,0,0-.19.33v0a0.34,0.34,0,0,0,.25.29,5.11,5.11,0,0,1,3.43,2.88,0.34,0.34,0,0,0,.33.2h0a0.33,0.33,0,0,0,.29-0.26,5.11,5.11,0,0,1,2.63-3.41,0.33,0.33,0,0,0,.18-0.32l0-.18a0.32,0.32,0,0,0-.24-0.28A5.15,5.15,0,0,1,79.43,3.3,0.31,0.31,0,0,0,79.11,3.09Z" style="fill:#fff"/><path d="M102.54,89.63c-0.22-.1-0.42-0.17-0.64-0.25s-0.56-.24-0.83-0.33l-0.73-.21c-0.23-.06-0.46-0.14-0.68-0.19s-0.49-.09-0.74-0.13l-0.61-.11-0.59,0c-0.23,0-.46,0-0.68,0s-0.25,0-.38,0-0.55,0-.82.07-0.35.08-.52,0.12l-0.59.13a5.25,5.25,0,0,0-.55.22,4.78,4.78,0,0,0-.48.19c-0.13.06-.24,0.15-0.37,0.22s-0.38.21-.56,0.33l-0.24.2a6.82,6.82,0,0,0-.58.49,6.28,6.28,0,0,0-.62.73l-0.09.1c-0.16.22-.29,0.46-0.43,0.69s-0.12.18-.17,0.28A8.72,8.72,0,0,0,90,93.88a11.19,11.19,0,0,0-.37,1.93c0,0.28,0,.58,0,0.87a15.89,15.89,0,0,0,.06,2.16c0,0.16.06,0.33,0.08,0.49l2.44,1.08c0-.07,0-0.15-0.05-0.22-0.94-7.37,3.67-11,10.28-8.1s12.75,11.26,13.69,18.63c0,0.09,0,.18,0,0.27l2.48,1.09c0-.1,0-0.18,0-0.28C117.7,103.15,110.51,93.2,102.54,89.63Z" style="fill:none"/><path d="M129.3,110.89c-1.21-12.13-11-26.06-21.83-31.1-5.46-2.54-10.15-2.34-13.3,0l-3.23,2.42c3.16-2.37,7.85-2.56,13.3,0,10.85,5,20.62,19,21.83,31.1q0.11,1.09.12,2.13l2.92,1.29A21,21,0,0,0,129.3,110.89Z" style="fill:#fff"/><path d="M89.64,98.84a15.89,15.89,0,0,1-.06-2.16c0-.29,0-0.59,0-0.87A11.38,11.38,0,0,1,90,93.88a9.21,9.21,0,0,1,.65-1.74c0.05-.1.12-0.18,0.17-0.28a6.72,6.72,0,0,1,.43-0.69l0.09-.1a7.44,7.44,0,0,1,.62-0.73,5.37,5.37,0,0,1,.58-0.49c0.08-.06.15-0.14,0.24-0.2a4.56,4.56,0,0,1,.56-0.33c0.12-.07.24-0.16,0.37-0.22s0.32-.12.48-0.19,0.36-.16.55-0.22a5.62,5.62,0,0,1,.59-0.13c0.17,0,.34-0.09.52-0.12s0.54-.05.82-0.07c0.13,0,.25,0,0.38,0s0.46,0,.68,0l0.59,0c0.2,0,.41.07,0.61,0.11s0.48,0.07.74,0.13,0.45,0.13.68,0.19,0.48,0.12.73,0.21,0.55,0.22.83,0.33,0.42,0.15.64,0.25c8,3.57,15.17,13.52,16,22.17,0,0.1,0,.19,0,0.28l5.14,2.27a2.09,2.09,0,0,1,0-.25C122.55,102.35,112.82,88.9,102,84h0c-0.26-.12-0.51-0.2-0.77-0.3s-0.82-.35-1.22-0.48l-0.55-.16C99,83,98.53,82.82,98.09,82.72s-0.6-.1-0.9-0.16-0.63-.13-0.93-0.16a14,14,0,0,0-1.42-.08l-0.31,0c-0.32,0-.62.05-0.93,0.07s-0.47,0-.7.06-0.49.11-.73,0.17-0.53.1-.78,0.18S90.93,83,90.7,83s-0.48.17-.7,0.28a9.48,9.48,0,0,0-.93.55c-0.11.07-.22,0.12-0.33,0.2a8,8,0,0,0-.71.6c-0.13.12-.28,0.22-0.41,0.34a11.06,11.06,0,0,0-.77.9c-0.06.08-.14,0.15-0.2,0.23a6.92,6.92,0,0,0-.48.79,5.73,5.73,0,0,0-.32.53A12.19,12.19,0,0,0,84.91,90c-0.07.26-.14,0.51-0.19,0.78A17.79,17.79,0,0,0,84.4,94a22,22,0,0,0,.1,2.53c0,0.17.05,0.35,0.07,0.52l5.14,2.27C89.7,99.17,89.66,99,89.64,98.84Z" style="fill:#fff"/><path d="M116.08,110.72C115.14,103.35,109,95,102.39,92.09s-11.22.73-10.28,8.1c0,0.07,0,.15.05,0.22L116.11,111C116.1,110.89,116.09,110.81,116.08,110.72Z" style="fill:#004b8d"/><rect x="106.03" y="83.46" width="2.26" height="44.66" transform="translate(-32.9 161.08) rotate(-66.17)" style="fill:#fff"/><polygon points="195.59 123.58 183.5 129.52 173.83 138.75 192.51 145.56 204.16 135.01 195.59 123.58" style="fill:#cb0026"/><path d="M65.29,67.75c0.32,0.25.66,0.47,1,.7l0.43,0.31c0.31,0.2.62,0.38,0.93,0.56l0.53,0.32c0.31,0.17.62,0.32,0.94,0.47l0.55,0.28c8,3.57,13.76-.56,12.9-9.21,0-.24-0.07-0.49-0.11-0.73L80,59.51c0,0.19.1,0.39,0.12,0.59,0.94,7.37-3.67,11-10.28,8.1A18.66,18.66,0,0,1,66.15,66l-1.86,1,0.51,0.41Z" style="fill:none"/><polygon points="228.66 119.38 233.32 120.11 233.99 123.21 232.31 127.5 183.54 160.31 181.85 156.59 228.66 119.38" style="fill:#005db4"/><path d="M58.58,56.89a22.15,22.15,0,0,1-2.47-7.33c-0.94-7.37,3.67-11,10.28-8.1,5.07,2.23,9.84,7.67,12.22,13.4,0.67,0.25,1.34.52,2,.82L81.35,56c-2.52-7.12-8.41-14.1-14.82-17-0.22-.1-0.42-0.17-0.64-0.25s-0.56-.24-0.83-0.33l-0.73-.21c-0.23-.06-0.46-0.14-0.68-0.19s-0.49-.09-0.74-0.13l-0.61-.11-0.59,0c-0.23,0-.46,0-0.68,0s-0.25,0-.38,0c-0.28,0-.55,0-0.82.07s-0.35.08-.52,0.12L58.72,38a5.25,5.25,0,0,0-.55.22,4.78,4.78,0,0,0-.48.19c-0.13.06-.24,0.15-0.37,0.22s-0.38.21-.56,0.33l-0.24.2a6.82,6.82,0,0,0-.58.49,6.28,6.28,0,0,0-.62.73l-0.09.1c-0.16.22-.29,0.46-0.43,0.69s-0.12.18-.17,0.28A8.72,8.72,0,0,0,54,43.24a11.19,11.19,0,0,0-.37,1.93c0,0.28,0,.58,0,0.87a15.89,15.89,0,0,0,.06,2.16,21.87,21.87,0,0,0,.94,4.38c0.06,0.19.11,0.38,0.17,0.57,0.15,0.44.32,0.87,0.5,1.31,0.05,0.12.08,0.23,0.13,0.35,0.15,0.37.33,0.74,0.5,1.1,0.08,0.18.16,0.36,0.25,0.54,0.18,0.37.39,0.74,0.59,1.11,0.05,0.08.09,0.17,0.13,0.25l0.31-.16Z" style="fill:none"/><path d="M197.57,129.75a15,15,0,0,0-13.46,1.35c-1.59,1.15-2.4,2.5-2.27,3.82s1.17,2.47,2.93,3.27a13.6,13.6,0,0,0,6.89.93h0a13.74,13.74,0,0,0,6.58-2.27c1.59-1.15,2.4-2.5,2.27-3.82S199.34,130.55,197.57,129.75Z" style="fill:none"/><path d="M89.15,73.08L85.92,75.5c3-2.25,4.6-6.49,4.17-12.19l-2.56-1c0.05,0.38.12,0.76,0.16,1.13C88.86,75.23,81,80.82,70.21,76h0c-0.34-.15-0.67-0.34-1-0.51s-0.67-.32-1-0.5-0.67-.4-1-0.61-0.65-.38-1-0.59-0.54-.38-0.81-0.57-0.75-.51-1.12-0.79c-0.22-.16-0.42-0.35-0.64-0.52-0.41-.33-0.83-0.65-1.23-1s-0.6-.55-0.89-0.83-0.61-.55-0.91-0.84L60.41,69C40.77,79.35,12.6,94.25,12.21,94.67l133.08,60.09L210,108.3,93.33,64.52C93,68.41,91.48,71.34,89.15,73.08Z" style="fill:none"/><path d="M233.16,118.54h0c-0.32-2.45-2.2-4.74-5.77-6.33L95.14,61.11a21.31,21.31,0,0,1,.05,4l115,43.11-64.67,46.46L12.43,94.57c0.06-.07.8-0.49,2.09-1.19,6.64-3.64,27.79-14.82,44.13-23.44l0.06-.07c-0.24-.25-0.49-0.5-0.73-0.76s-0.55-.56-0.82-0.85-0.4-.47-0.6-0.7c-0.36-.41-0.72-0.82-1.07-1.25l-0.18-.23c-0.47-.59-0.94-1.19-1.38-1.81l-0.43-.63c-0.34-.49-0.69-1-1-1.49l-0.21-.35C52,61.42,51.8,61,51.58,60.65L4.14,85.8A13.24,13.24,0,0,0,1.5,88.29,8.86,8.86,0,0,0,.17,90.61l-0.08.26c0.45,2.4,1.69,6.07,6.81,8.36L153.3,166c5.5,2.51,13.35,2.39,19.53,0C166.48,169,158,170.56,152,167.86L5.65,101C2.4,99.57.46,97.16,0,94.79l0.64,7,0,0.48h0c0,0.1,0,.19.07,0.28s0.06,0.28.1,0.42S1,103.26,1,103.42s0.11,0.27.17,0.41,0.16,0.31.25,0.47l0.23,0.39c0.1,0.15.22,0.3,0.34,0.45l0.29,0.37c0.13,0.15.28,0.29,0.43,0.44L3.1,106.3l0,0h0c0.16,0.15.35,0.29,0.53,0.43S3.9,107,4,107.06s0.45,0.29.68,0.44,0.25,0.17.39,0.24c0.36,0.21.75,0.4,1.15,0.59l0,0,146.4,66.81a18,18,0,0,0,2.81,1c0.28,0.08.59,0.11,0.88,0.18,0.72,0.16,1.44.33,2.19,0.43,0.37,0.05.76,0.05,1.14,0.08,0.69,0.06,1.38.13,2.09,0.14,0.42,0,.85,0,1.27-0.06,0.68,0,1.35,0,2-.1h0.06a24.83,24.83,0,0,0,11.69-4.08L229.7,134.8c3.23-2.32,4.47-4.63,4.42-7.63l-0.17-4c-0.24,2.94-32.2,24.06-32.2,24.06a138.61,138.61,0,0,1-13.63,8.05c3.7-2.94,9.43-6.71,13.16-9.6,0,0,15.3-10.5,24-17.59,2.28-1.85,7.08-5.43,8-8l-0.15-1.49h0ZM184.33,131a15,15,0,0,1,13.46-1.35c1.77,0.8,2.81,2,2.94,3.28a2.28,2.28,0,0,1,0,.26,4.55,4.55,0,0,1-2.25,3.56,13.74,13.74,0,0,1-6.58,2.27h0a13.84,13.84,0,0,1-6.89-.93,5.94,5.94,0,0,1-2.15-1.55,3.15,3.15,0,0,1-.79-1.73C181.93,133.5,182.74,132.14,184.33,131Z" style="fill:#fff"/><path d="M93.31,60.59c0-.11,0-0.21,0-0.32-1.21-12.13-11-26.06-21.83-31.1-5.46-2.54-10.15-2.34-13.3,0l-3.23,2.42c3.16-2.37,7.85-2.56,13.3,0C78,36.14,86.91,47.92,89.44,59.09a28.81,28.81,0,0,1,.61,3.6c0,0.21,0,.41,0,0.62l1.08,0.4-1.08-.4c0.43,5.71-1.17,9.94-4.18,12.19l3.23-2.42c2.33-1.75,3.82-4.67,4.18-8.56h0A21.51,21.51,0,0,0,93.31,60.59Z" style="fill:#fff"/><path d="M87.7,63.48c0-.37-0.11-0.75-0.16-1.13a30.72,30.72,0,0,0-1-4.37h0C83.49,47.8,75.14,37.53,66,33.42h0c-0.26-.12-0.51-0.2-0.77-0.3-0.41-.17-0.82-0.35-1.22-0.48l-0.55-.16c-0.46-.14-0.92-0.29-1.36-0.39s-0.6-.1-0.9-0.16-0.63-.13-0.93-0.16a14,14,0,0,0-1.42-.08l-0.31,0c-0.32,0-.62.05-0.93,0.07s-0.47,0-.7.05-0.49.11-.73,0.17-0.53.1-.78,0.18-0.46.18-.69,0.27-0.48.17-.7,0.28a9.48,9.48,0,0,0-.93.55c-0.11.07-.22,0.12-0.33,0.2A8,8,0,0,0,52,34c-0.13.12-.28,0.22-0.41,0.34a11.06,11.06,0,0,0-.77.9c-0.06.08-.14,0.15-0.2,0.23a6.92,6.92,0,0,0-.48.79,5.73,5.73,0,0,0-.32.53,12.19,12.19,0,0,0-.94,2.57c-0.07.26-.14,0.51-0.19,0.78a17.79,17.79,0,0,0-.32,3.2,22,22,0,0,0,.1,2.53A28.07,28.07,0,0,0,49.22,50c0.12,0.46.25,0.93,0.39,1.4s0.24,0.85.39,1.27l0.06,0.16c0.24,0.7.5,1.39,0.79,2.09,0.15,0.35.32,0.7,0.47,1s0.35,0.79.54,1.19c0.28,0.57.59,1.14,0.9,1.7L53,59.3l0.26,0.43c0.27,0.46.54,0.92,0.83,1.37l0.21,0.35c0.32,0.49.66,1,1,1.46,0.14,0.2.27,0.42,0.42,0.62q0.66,0.9,1.35,1.77c0.06,0.07.11,0.15,0.17,0.23,0.34,0.42.69,0.82,1.05,1.22,0.2,0.23.39,0.46,0.59,0.68s0.54,0.56.8,0.83,0.47,0.5.71,0.74l0.21,0.21c0.3,0.29.6,0.56,0.91,0.84l0.89,0.83c0.4,0.35.82,0.67,1.23,1l0.64,0.52c0.37,0.28.75,0.53,1.12,0.79l0.81,0.57c0.32,0.21.65,0.39,1,.59s0.67,0.42,1,.61,0.67,0.33,1,.5,0.67,0.35,1,.51h0C81.05,80.81,88.87,75.23,87.7,63.48Zm-18,6.91c-0.19-.08-0.37-0.19-0.55-0.28s-0.63-.3-0.94-0.47l-0.53-.32C67.33,69.14,67,69,66.71,68.76l-0.43-.31c-0.33-.23-0.66-0.45-1-0.7l-0.49-.4-0.51-.41-0.39-.31c-0.18-.15-0.35-0.32-0.52-0.48l-0.8-.74c-0.21-.2-0.4-0.42-0.61-0.63s-0.45-.45-0.66-0.69-0.31-.36-0.46-0.54-0.5-.57-0.74-0.87L60,62.58c-0.36-.45-0.71-0.9-1.05-1.37l-0.32-.46C58.06,59.89,57.49,59,57,58.1c-0.05-.08-0.09-0.17-0.13-0.25s-0.09-.17-0.13-0.25c-0.2-.37-0.4-0.74-0.59-1.11C56,56.31,56,56.13,55.88,55.95c-0.17-.37-0.35-0.73-0.5-1.1-0.05-.12-0.09-0.23-0.13-0.35-0.18-.44-0.35-0.87-0.5-1.31-0.07-.19-0.11-0.38-0.17-0.57a21.34,21.34,0,0,1-.94-4.38,15.89,15.89,0,0,1-.06-2.16c0-.29,0-0.59,0-0.87A11.38,11.38,0,0,1,54,43.28a9.21,9.21,0,0,1,.65-1.74c0.05-.1.12-0.18,0.17-0.28a6.71,6.71,0,0,1,.43-0.69l0.09-.1A7.44,7.44,0,0,1,56,39.74a5.37,5.37,0,0,1,.58-0.49c0.08-.06.15-0.14,0.24-0.2a4.56,4.56,0,0,1,.56-0.33c0.12-.07.24-0.16,0.37-0.22s0.32-.12.48-0.19,0.36-.16.55-0.22A5.62,5.62,0,0,1,59.32,38c0.18,0,.34-0.09.52-0.12s0.54-.05.82-0.07c0.13,0,.25,0,0.38,0s0.46,0,.68,0l0.59,0c0.2,0,.41.07,0.61,0.11S63.4,38,63.66,38s0.45,0.13.68,0.19,0.48,0.12.73,0.21,0.55,0.22.83,0.33,0.42,0.15.64,0.25c6.4,2.87,12.29,9.85,14.82,17a23.36,23.36,0,0,1,1.11,4.47c0,0.24.08,0.49,0.11,0.73C83.42,69.83,77.64,74,69.66,70.39Z" style="fill:#fff"/><path d="M78.61,54.86c-2.38-5.74-7.15-11.18-12.22-13.41-6.61-2.9-11.22.73-10.28,8.1a22.15,22.15,0,0,0,2.47,7.33A27.64,27.64,0,0,0,66.16,66a18.66,18.66,0,0,0,3.64,2.23c6.61,2.9,11.22-.73,10.28-8.1,0-.19-0.09-0.39-0.12-0.59A21.72,21.72,0,0,0,78.61,54.86Z" style="fill:#004b8d"/><polygon points="138.98 85.45 200.77 109.38 148.86 146.5 191.7 110.31 138.98 85.45" style="fill:#005db4"/><path d="M32.77,25.14h0a0.37,0.37,0,0,0-.31.28,5.56,5.56,0,0,1-3,3.73,0.37,0.37,0,0,0-.21.36v0a0.38,0.38,0,0,0,.27.31A5.53,5.53,0,0,1,33.18,33a0.35,0.35,0,0,0,.36.21h0a0.36,0.36,0,0,0,.31-0.28,5.57,5.57,0,0,1,2.85-3.7,0.37,0.37,0,0,0,.2-0.35l0-.2a0.35,0.35,0,0,0-.26-0.31,5.56,5.56,0,0,1-3.5-3A0.32,0.32,0,0,0,32.77,25.14Z" style="fill:#fff"/></svg>