<svg id="Layer_4" data-name="Layer 4" xmlns="http://www.w3.org/2000/svg" viewBox="0 0 485.63 282.35"><title>Car</title><path d="M454.77,63.74s15,3.16,16.11,5.48,0.5,17.77-1.33,19.44-6.81,3.16-6.81,3.16Z" style="fill:#d60021"/><path d="M438.24,215.14a6,6,0,0,1-4.32,3c-8.45,1.38-33.56,5.53-41.65,7.25-8.65,1.83-55.71,12.74-55.71,12.74L339,227.38s12-18.59,14.42-20.36,56.92-26.05,66.38-25.19c3.26,0.3,21.63,17.48,22.82,21C443.48,205.35,440.26,211.6,438.24,215.14Z" style="fill:#fff"/><path d="M306,112.88s-13.55,4.81-21.59,11.42c-4.09,3.36-14.6,14.45-17.76,15.89s-35.29,6.54-35.29,6.54-8.88-13.32-18.93-13.55c-9.36-.22-43.74,3.54-44.6,2.4s9.48-8.9,10.34-9.19S289,102,294.77,104,306,112.88,306,112.88Z" style="fill:#d60021"/><path d="M43.44,92.59s-19,7.76-21.54,12.64a35.27,35.27,0,0,0-3.2,11.35s2.77,10.09,7.95,12.39c0,0,8.2-7.89,13.09-8.18S70.35,129,70.35,129s1-10.24-.18-12S43.44,92.59,43.44,92.59Z" style="fill:#d60021"/><path d="M113.24,130.79c-4.29-.33-14.07.86-14.36,9.48s9.94,10.62,13,10.91c3.42,0.33,14.54-1.43,14.54-9.47S117.52,131.12,113.24,130.79Z" style="fill:#d60021"/><path d="M314.42,89.42a0.11,0.11,0,0,1,0-.05l-1-.18Z" style="fill:none"/><path d="M309.89,88.33l0.21,0.24,3.38,0.63Z" style="fill:none"/><path d="M330.16,92.58a23.67,23.67,0,0,1,6,3.13c3.11,2.36,10.69,7.15,15.28,2.26,6.67-7.11,24.28-2.18,41.12-8.74,3.43-1.34,4.11-9.48,4.25-10.16-3.63-25.76-17.14-57.4-17.14-57.4-15.11.44-27.56,0-32.45,7.11-3.76,5.47-14.33,41.07-19,57.28,5.16-1.39,19.35-5.11,20.8-4.38,1.78,0.89,2.22,5.33,2.22,5.33l2-.16s-2.82-19.1,4.65-19.93c6.76-.75,28.59,3,35,7.87a3.73,3.73,0,0,1,1.39,3.4A16.1,16.1,0,0,1,392,85.52c-3.32,4.65-32.73,5.65-36.38,7s-6.81,4.82-10,4.82-10.33-6.16-12.6-6.7c-3-.71-11.72-1.68-18.25-2.22-0.17.48-.29,0.84-0.35,1C320.31,90.47,327.89,91.94,330.16,92.58Z" style="fill:none"/><path d="M419.29,32.27c-5.72-2.42-21.56-8.74-33.85-10.26,1.26,3.74,4.45,13.23,8.53,25.63,4.5,13.64,8.29,27.52,8.72,29.09,16.78-6.45,21.54-9.89,21.88-11.95C425.3,60.4,422.74,42,421.8,35.5A4.2,4.2,0,0,0,419.29,32.27Z" style="fill:none"/><path d="M482.36,112.78c-4.45-4.45-17.34-17.34-18.23-19.56s-5.4-23.27-6.22-25.34c-1.78-4.45-30.23-32-30.23-32A19,19,0,0,1,424.44,31c-1.45-3.07-2.53-7.37-4.32-8.93C416.56,19,383.23,8.32,338.77,3.87S235.64-1,197.86,1.65,157.3,9.31,124.43,36.8C104.89,53.15,83.6,75.22,83.6,75.22A8.47,8.47,0,0,0,77.19,75a102,102,0,0,0-13.7,5.91c-5.89,3.36-29.86,16-25.23,21.45s47.1,23.55,53.82,24.81,37.42,3.36,43.73,3.36,112.27-10.09,132-18.08,25.42,6.42,36.58.84c3.36-1.68,13.46-8,2.1-23.55,0,0-1.07-4.58-27.18.65-11,2.21-50.5,25.31-53,23.92-2.21-1.21,34.8-24.91,32.36-25.13-7.46-.66-16-1.27-27.41-2-26.81-1.62-78-4.51-123.83-7.28-1.62-.1-10.21,29.68-11.81,29.58-2.88-.17,1.5-30.41-0.82-30.87a56.45,56.45,0,0,1-6.16-1.58C90,75.6,107.21,57.42,120.95,45.64c15.65-13.42,28.92-24.31,37.79-30.34a18.92,18.92,0,0,1,10.07-3.21c10.73-.36,36.36-1,73.05-0.68C291.2,11.85,337.43,21.63,337,23.86c-0.41,2.05-18.09,52.27-21,60.62,0,0.23,15.16,2.83,18.14,3.72,4.65,1.4,7.54,6.51,10.7,6.51s6.81-3.32,10.46-4.65,33.36,0.08,36.68-4.57a16.09,16.09,0,0,0,2.38-7.36,3.75,3.75,0,0,0-1.46-3.43c-6.54-4.87-27.24-7.66-34-6.91-7.48.83-7.59,18.54-7.59,18.54s-0.77-3.31-2.55-4.2c-1.45-.73-14.15-1.38-19.31,0,4.7-16.2,14-47.94,17.74-53.4,4.89-7.11,17.34-6.67,32.45-7.11,0,0,14.3,31.74,17.93,57.49,0.23,5.58-.52,9.82-4,11.16-16.84,6.56-35.34,1.63-42.21,7.66-5,4.42-12.18.1-15.28-2.26a24.33,24.33,0,0,0-6-3.13c-2.28-.64-16.69-3.39-16.69-3.39l-3.38-.63c1,1.17,7.09,8.52,5.94,15.23-1.29,7.49-5.61,10.48-9.7,12.54-18.45,9.29-33.69,28.06-37.69,29.4s-39.35,6.89-39.35,6.89-11.72-15.09-18.38-14.65-70.82,3.7-70.82,3.7S123.63,155.42,113,155.86s-20-9.78-25.34-16c0,0-32-10.19-42.42-12.95-8.1-2.15-18.92,8.51-18.92,8.51s-8.89-4.45-8.89-12.89c0,0-15.56,20.45-16.89,47.56-1,20.81-.23,43.86.2,53.46a5.94,5.94,0,0,0,4.72,5.58A352.17,352.17,0,0,0,40.85,235c51.7,5.17,137.3,11.49,137.3,11.49,0-.36,93.93,3.31,100.25,1.72,6-1.5,12.06-65.2,32.75-91.34,2.87-3.63,9.19-7.47,15.22-5.74,7.14,2,15.77,12.43,15.22,38.78,0,0-2.33,31.18-1.88,29.85a96.89,96.89,0,0,1,10.7-17.44c5.58-7.21,66.27-26.63,70.61-26,3.33,0.46,20.91,19.25,20.91,19.25s9.72-57.73,26-63.21c14.57-4.92,16.42,26.47,17,21.6C485.66,148.36,486.81,117.22,482.36,112.78Zm-57.78-48c-0.34,2.06-5.1,5.5-21.88,11.95-0.43-1.57-4.22-15.45-8.72-29.09-4.09-12.4-7.27-21.88-8.53-25.63,12.29,1.52,28.13,7.84,33.85,10.26a4.22,4.22,0,0,1,2.52,3.22C422.74,42,425.31,60.39,424.58,64.77Z" style="fill:#fff"/><path d="M88.83,52.93a8.26,8.26,0,0,0-3.49.81c-3.18,1.59-8.32,5.13-9.2,7.35-1.1,2.78-.87,7.5,6.17,11l21-20A4,4,0,0,0,99.77,52C98.17,52.61,91.82,52.85,88.83,52.93Z" style="fill:#fff"/><path d="M220.22,210.16c-3.91-4.69-9.47-11-19.3-11.51s-70.24-3.49-93.64-4.92C79,192,38,186.85,36.75,186.85S25.69,184.39,21,193s-5.9,19.66,2.95,22.86,15.73,7.37,30.23,7.62,122.64,8.36,122.64,8.36,42.48-.69,47.19-7.13C227.79,219.55,223.57,214.18,220.22,210.16Z" style="fill:#006bac"/><path d="M261.7,191.09c-14.4-26.82-20.89-30-20.89-30s11.68,15.7,9.08,20c-0.9,1.5-7.41,2.37-11,2.43-10,.16-31.72-1.5-32-1.13s26.62,4.25,30.27,5.19c6.7,1.73,10.52,7.7,12.76,10.6,9.57,12.37,18.16,24.87,20.66,23.84C272.49,221.25,268.25,203.29,261.7,191.09Z" style="fill:#006bac"/><path d="M26.52,169.67s-13.63-.87-14.27-6.31c-0.18-1.54,3.44-13.76,5.65-19.66,0,0-7.16,12.14-10.41,24.89C4.77,179.29,1.82,200,1.82,202.21s-0.12,4.69,2.09,1.25S11.63,182.57,17.48,174C20.2,170.05,26.52,169.67,26.52,169.67Z" style="fill:#006bac"/><path d="M204.82,182.14c2.21-1.23-7.08-6.32-11.06-7.37-6.15-1.63-14.41.1-84.64-6-49.37-4.26-53.63-5.19-65.52-6.05-10.83-.79-15.48,6.61-15.48,6.61s75.69,7.86,79.63,8.36S202.61,183.37,204.82,182.14Z" style="fill:#006bac"/><path d="M201.31,207.57c-9.83-.49-70.24-3.49-93.64-4.92-28.26-1.72-69.31-6.88-70.53-6.88s-11.06-2.46-15.73,6.14a31,31,0,0,0-3.1,8.45A9.1,9.1,0,0,0,24,215.85c8.85,3.19,15.73,7.37,30.23,7.62s122.64,8.36,122.64,8.36,42.48-.69,47.19-7.13c0.08-.1.1-0.21,0.17-0.31a14.73,14.73,0,0,0-2.73-3.06S211.14,208.06,201.31,207.57Z" style="fill:#004b8d"/><path d="M105.68,172.06C56.31,167.8,52,166.87,40.16,166A17.71,17.71,0,0,0,28,169.32c13.72,1.43,73.31,7.63,76.79,8.06s77.63,4.67,93.93,4.61a35.74,35.74,0,0,0-8.38-4C184.18,176.39,175.92,178.12,105.68,172.06Z" style="fill:#004b8d"/><path d="M313.47,163.87s16.71-4.42,20.64,24.08,0.25,55.54-4.92,71.27-9.83,18.92-14.25,20.64c-10.63,4.13-26.22,2.12-32.56,1a7.91,7.91,0,0,1-5.73-4c-1.79-3.34-4-9.81-5.7-22.32,0,0,12.78,0,13.52-3.19C294.57,207.57,302.41,179.84,313.47,163.87Z" style="fill:#fff"/><path d="M463.53,145.71s17,2.81,17.45,41.63c0.41,38.09-8.48,54.8-10.57,57.51-2.46,3.19-6.39,6.39-17.2,7.13s-24.08,1-28.26-2.7c-4.82-4.26-6.2-24.65-6.2-23.67,0,0.13,13.11-1,18.61-2.81,3.63-1.17,6.84-8.95,9.13-17.21,2.71-9.78,5-26.26,6.72-33C457,158,461.9,147.47,463.53,145.71Z" style="fill:#fff"/><path d="M9.89,234.25s12.12,2.94,34.53,5.33c12.08,1.29,34.53,2.2,34.53,2.2s-3.86,19.1-21.49,19.29-32-1.26-37.66-6.25C11.91,247.85,9.89,234.25,9.89,234.25Z" style="fill:#fff"/><path d="M477.92,116c-6.5-1.94-11.41-2.07-16.74,2.52-3.92,3.38-7.49,10-9.78,15.85-4.72,12.09-7.7,19.85-13.19,37.93a111.79,111.79,0,0,1,3-19.81,146.35,146.35,0,0,1,5.79-19.15c2.71-6.18,4.77-12.54,10.7-18.1a15.06,15.06,0,0,1,10.74-3.4A16.81,16.81,0,0,1,477.92,116Z" style="fill:#004b8d"/><path d="M317.89,114.26a41,41,0,0,1,18.67,9.7,42.78,42.78,0,0,1,11.9,17.87A144.64,144.64,0,0,1,354,162.37a196.34,196.34,0,0,1,3.07,21.06l-3.89-2.74c15.62-5.08,31.26-10.52,46.32-16.82,7.33-3.26,15.25-6.57,20.79-11.13,2.25-1.95,4.1-5.76,5.83-9.29s3.32-7.38,4.83-11.18c5.89-15.27,11.3-30.91,15.89-46.71,1.11-3.95,2.23-7.94,3-11.86,0.18-.86.36-2.19,0.37-2.4a11.88,11.88,0,0,0-1.1-2.31c-1-1.7-2.19-3.39-3.38-5.06-4.82-6.67-10.07-13.09-15.2-19.6,6,5.78,11.7,11.75,17.17,18,1.36,1.59,2.71,3.19,4,4.94a13,13,0,0,1,1.78,3.16,12.34,12.34,0,0,1,0,3.77c-0.59,4.25-1.5,8.29-2.41,12.37a408.16,408.16,0,0,1-14,48c-1.45,3.93-3,7.85-4.73,11.74-1.93,3.82-3.47,7.85-7.36,11.56-7.31,6-15,9.1-22.7,12.47a441.28,441.28,0,0,1-47.33,16.14l-3.69,1.06-0.2-3.8c-0.7-13.64-2.33-27.59-6.21-40.73a43.31,43.31,0,0,0-9.76-17.54A44,44,0,0,0,317.89,114.26Z" style="fill:#004b8d"/><path d="M318.84,212.56l-7,6.16,9.25-11.08,0.26-19s-2.79-2.25-5-1.76c-3.57.8-4.7,3.34-4.7,4.42s1.6,16.85,1.6,16.85l-2.27,9s-6.1-13.76-6.57-14.24c-0.94-1-3.74,14-4,16.14-0.54,5.45.08,11.85,0.7,12.33,1.19,0.92,10,2.51,10.49,3.3,0.18,0.3-1.81,3.15-3.52,5.65-2.28,3.35-7,9.8-7,10.87s3.24,13.43,5.89,13.43c0.62,0,4-11.34,6-17.42,1.34-4.17,1.5-12.82,1.64-12.78,0.48,0.13,1.25,11.17,1.25,11.17l-0.31,21.27s6.54-10.34,7.91-16c1.09-4.48-1.09-12.29-1.09-12.29l-7.31-15s6.69,7.78,7.06,7.68a58.19,58.19,0,0,0,5.77-2.28s0.45-11.08.15-15.39-1.79-9.24-2.24-9.24S318.84,212.56,318.84,212.56Zm-4.77,14.09c-0.41,5.08-1.54,5.54-2.44,5.23s-1.72-2.17-1.57-5.56c0.12-2.77.91-5.07,2-5.22C313.51,220.92,314.43,222.23,314.07,226.65Z" style="fill:#004b8d"/><path d="M315.19,181.46c-11.43,1.07-17.61,25.85-18.88,36.45-6,49.67,11.41,56.84,15.94,57,5.2,0.18,18.47-9.83,19.75-53.6C333.21,179.86,319,181.11,315.19,181.46Zm14.21,50.86s-5.81,2.1-5.74,2.24a55.93,55.93,0,0,1,2.79,13.11c0.09,1.08-1.23,5.77-4.5,12.63-3.54,7.43-7.31,11.51-7.91,11.51s0-18.92,0-18.92l-5.82,18.47a36,36,0,0,1-6.72-8.93c-1.94-4-3.31-13-3.31-13s3-4.22,4-5.46,5.68-7.93,5.68-7.93l-10-2.23a107.46,107.46,0,0,1,.6-20.2,53.34,53.34,0,0,1,5.43-17.27l6.46,13.81,0.57-2.07-1.92-19.58s3.47-5.24,8.71-5c3.73,0.15,6,4.07,6,4.07l-0.62,15.83,4.6-5.28a87.88,87.88,0,0,1,2.54,19A95.09,95.09,0,0,1,329.4,232.32Z" style="fill:#004b8d"/><path d="M463.64,196.25c0,2.08.34,5.27,1.42,5.27,0.86,0,1.46-2.3,1.33-5.27s-0.51-4.18-1.5-4.13S463.64,193.93,463.64,196.25Z" style="fill:#004b8d"/><path d="M464.47,205.83s0.77,4.15.26,5.78-5.55,17.63-5.55,17.63,1.29,4.45,2.71,5.48a2.15,2.15,0,0,0,2.58.15s2.84-21.34,2.2-24.15A14.45,14.45,0,0,0,464.47,205.83Z" style="fill:#004b8d"/><path d="M467,178.12l-1.55-15.26c-1.94,1-5.42,8.74-5.55,9.93s3.23,13.48,3.23,13.48Z" style="fill:#004b8d"/><path d="M462.14,209.68c0.65-1.48,0-9,0-9s-0.39-8.15-.9-8.74-4.78-2.37-5.29-1.78-1,9.19-1,12.45a61.44,61.44,0,0,0,1.55,11.56C456.85,214.87,461.5,211.16,462.14,209.68Z" style="fill:#004b8d"/><path d="M465.77,157.57c-3.31.39-9.74,7.07-11.92,27.58s-0.78,34,.79,42.4c1,5.53,4.72,17.09,10.73,14.36,6.38-2.9,12-27.35,12.32-42.63C478.09,182.88,477.1,156.23,465.77,157.57Zm10.71,32.25s-3.87,6.37-3.62,7.56,3.49,5.63,3.49,5.63a96.49,96.49,0,0,1-1,12.45c-1,7.12-4.91,16.45-4.91,16.45s-1.94-11.56-1.94-12-2.2,18.08-2.2,18.08a4.38,4.38,0,0,1-4.91-.3c-3.87-3-4.39-8.74-4.39-8.74s4.52-14.22,4.13-14.67-6.2,5.33-6.2,5.33-1.64-6.67-1.29-17.93a157.94,157.94,0,0,1,1.68-17.19s6.07,5.19,6.33,4-3.87-15.71-3.87-15.71a40.14,40.14,0,0,1,3.49-8.3c3.81-6.42,6.84-4.3,6.84-4.3L468.73,175l2.58-11.85a53.93,53.93,0,0,1,3.87,9.78A58.54,58.54,0,0,1,476.48,189.82Z" style="fill:#004b8d"/><path d="M469.37,181.53c-0.77,1.78-2.58,5.78-2.58,6.52s0.13,2.37.13,2.37,4,3,4.91,2.52,2.84-6.52,2.84-8-1.16-12.45-2.84-15.56C471.61,169,470.15,179.75,469.37,181.53Z" style="fill:#004b8d"/><path d="M471.44,199.6c-0.65,0-3.87,2.07-3.87,2.07l3.36,21.48s2.84-11.71,2.84-15.56S472.09,199.6,471.44,199.6Z" style="fill:#004b8d"/><path d="M162.67,15.65L98.93,72.52,207.7,79.39s-94.27-9.16-93.89-12.21S162.67,15.65,162.67,15.65Z" style="fill:#148dd8"/><path d="M177.55,15.27S286.7,13.36,326.78,26.34l-15.52,51.4a7.66,7.66,0,0,1-7.37,5.44l-67.18-2.26s66.1-2.21,67.93-3.82c3-2.67,14.86-45.15,13.74-46.18C308.84,22.14,177.55,15.27,177.55,15.27Z" style="fill:#148dd8"/><path d="M346.25,41.6s3.43-11.07,7.63-13.36,22.52-2.67,22.52-2.67a293.82,293.82,0,0,1,13.36,40.07s-13-30.53-16-33.2-15.52-2.91-17.94-.76C352.35,34.73,346.25,41.6,346.25,41.6Z" style="fill:#148dd8"/></svg>