<?xml version="1.0" encoding="utf-8"?>
<!-- Generator: Adobe Illustrator 23.0.3, SVG Export Plug-In . SVG Version: 6.00 Build 0)  -->
<svg version="1.1" id="Layer_4" xmlns="http://www.w3.org/2000/svg" xmlns:xlink="http://www.w3.org/1999/xlink" x="0px" y="0px"
	 viewBox="0 0 623.82 363.13" style="enable-background:new 0 0 623.82 363.13;" xml:space="preserve">
<style type="text/css">
	.st0{fill:#D60021;}
	.st1{fill:#FFFFFF;}
	.st2{fill:#148DD8;}
	.st3{fill:none;}
	.st4{fill:#006BAC;}
	.st5{fill:#004B8D;}
</style>
<g>
	<path class="st0" d="M514.04,105.32c0,0,14.95,3.16,16.11,5.48s0.5,17.77-1.33,19.44c-1.83,1.66-6.81,3.16-6.81,3.16L514.04,105.32
		z"/>
	<path class="st1" d="M497.51,256.72c-0.92,1.62-2.48,2.7-4.32,3c-8.45,1.38-33.56,5.53-41.65,7.25
		c-8.65,1.83-55.71,12.74-55.71,12.74l2.47-10.75c0,0,12.05-18.59,14.42-20.36c2.37-1.78,56.92-26.05,66.38-25.19
		c3.26,0.3,21.63,17.48,22.82,21.04C502.75,246.93,499.53,253.18,497.51,256.72z"/>
	<path class="st2" d="M365.25,154.46c0,0-13.55,4.81-21.59,11.42c-4.09,3.36-14.6,14.45-17.76,15.89
		c-3.16,1.44-35.29,6.54-35.29,6.54s-8.88-13.32-18.93-13.55c-9.36-0.22-43.74,3.54-44.6,2.4s9.48-8.9,10.34-9.19
		s110.88-24.42,116.62-22.4C359.8,147.56,365.25,154.46,365.25,154.46z"/>
	<path class="st2" d="M102.71,134.17c0,0-18.96,7.76-21.54,12.64c-2.59,4.88-3.2,11.35-3.2,11.35s2.77,10.09,7.95,12.39
		c0,0,8.2-7.89,13.09-8.18c4.88-0.29,30.61,8.18,30.61,8.18s0.97-10.24-0.18-11.96S102.71,134.17,102.71,134.17z"/>
	<path class="st0" d="M172.51,172.37c-4.29-0.33-14.07,0.86-14.36,9.48c-0.29,8.62,9.94,10.62,13.04,10.91
		c3.42,0.33,14.54-1.43,14.54-9.47C185.73,175.25,176.79,172.7,172.51,172.37z"/>
	<g>
		<path class="st3" d="M373.69,131c0-0.01,0.01-0.04,0.02-0.05c-0.32-0.06-0.65-0.12-0.96-0.18L373.69,131z"/>
		<path class="st3" d="M369.16,129.91c0,0,0.12,0.13,0.21,0.24c0.97,0.18,2.12,0.39,3.38,0.63L369.16,129.91z"/>
		<path class="st3" d="M389.43,134.16c2.04,0.57,5.06,2.41,6,3.13c3.11,2.36,10.69,7.15,15.28,2.26c6.67-7.11,24.28-2.18,41.12-8.74
			c3.43-1.34,4.11-9.48,4.25-10.16c-3.63-25.76-17.14-57.4-17.14-57.4c-15.11,0.44-27.56,0-32.45,7.11
			c-3.76,5.47-14.33,41.07-19.02,57.28c5.16-1.39,19.35-5.11,20.8-4.38c1.78,0.89,2.22,5.33,2.22,5.33l2.04-0.16
			c0,0-2.82-19.1,4.65-19.93c6.76-0.75,28.59,2.98,35.05,7.87c1.05,0.8,1.52,2.08,1.39,3.4c-0.2,1.95-0.78,5.09-2.38,7.33
			c-3.32,4.65-32.73,5.65-36.38,6.98c-3.65,1.33-6.81,4.82-9.97,4.82c-3.16,0-10.33-6.16-12.6-6.7c-3.02-0.71-11.72-1.68-18.25-2.22
			c-0.17,0.48-0.29,0.84-0.35,0.99C379.58,132.05,387.16,133.52,389.43,134.16z"/>
		<path class="st3" d="M478.56,73.85c-5.72-2.42-21.56-8.74-33.85-10.26c1.26,3.74,4.45,13.23,8.53,25.63
			c4.5,13.64,8.29,27.52,8.72,29.09c16.78-6.45,21.54-9.89,21.88-11.95c0.73-4.38-1.83-22.81-2.77-29.28
			C480.84,75.63,479.9,74.42,478.56,73.85z"/>
		<path class="st1" d="M541.63,154.36c-4.45-4.45-17.34-17.34-18.23-19.56s-5.4-23.27-6.22-25.34c-1.78-4.45-30.23-32-30.23-32
			s-1.8-1.81-3.24-4.85c-1.45-3.07-2.53-7.37-4.32-8.93c-3.56-3.11-36.89-13.78-81.35-18.23s-103.13-4.89-140.91-2.22
			s-40.56,7.66-73.43,35.15c-19.54,16.35-40.83,38.42-40.83,38.42c-2.05-0.92-4.3-0.99-6.41-0.23c-3.83,1.39-9.9,3.74-13.7,5.91
			c-5.89,3.36-29.86,15.98-25.23,21.45c4.63,5.47,47.1,23.55,53.82,24.81c6.73,1.26,37.42,3.36,43.73,3.36
			c6.31,0,112.27-10.09,132.04-18.08c19.76-7.99,25.42,6.42,36.58,0.84c3.36-1.68,13.46-7.99,2.1-23.55c0,0-1.07-4.58-27.18,0.65
			c-11.03,2.21-50.5,25.31-53.05,23.92c-2.21-1.21,34.8-24.91,32.36-25.13c-7.46-0.66-16.03-1.27-27.41-1.96
			c-26.81-1.62-78-4.51-123.83-7.28c-1.62-0.1-10.21,29.68-11.81,29.58c-2.88-0.17,1.5-30.41-0.82-30.87
			c-2.32-0.46-4.37-1.01-6.16-1.58c1.38-1.46,18.58-19.64,32.32-31.42c15.65-13.42,28.92-24.31,37.79-30.34
			c2.98-2.03,6.47-3.09,10.07-3.21c10.73-0.36,36.36-1.01,73.05-0.68c49.34,0.44,95.57,10.22,95.13,12.45
			c-0.41,2.05-18.09,52.27-21,60.62c0,0.23,15.16,2.83,18.14,3.72c4.65,1.4,7.54,6.51,10.7,6.51s6.81-3.32,10.46-4.65
			c3.65-1.33,33.36,0.08,36.68-4.57c1.61-2.25,2.18-5.4,2.38-7.36c0.14-1.33-0.39-2.63-1.46-3.43c-6.54-4.87-27.24-7.66-33.97-6.91
			c-7.48,0.83-7.59,18.54-7.59,18.54s-0.77-3.31-2.55-4.2c-1.45-0.73-14.15-1.38-19.31,0.01c4.7-16.2,13.98-47.94,17.74-53.4
			c4.89-7.11,17.34-6.67,32.45-7.11c0,0,14.3,31.74,17.93,57.49c0.23,5.58-0.52,9.82-3.95,11.16c-16.84,6.56-35.34,1.63-42.21,7.66
			c-5.04,4.42-12.18,0.1-15.28-2.26c-0.94-0.71-3.96-2.55-6-3.13c-2.28-0.64-16.69-3.39-16.69-3.39c-1.25-0.23-2.41-0.45-3.38-0.63
			c1.01,1.17,7.09,8.52,5.94,15.23c-1.29,7.49-5.61,10.48-9.7,12.54c-18.45,9.29-33.69,28.06-37.69,29.4
			c-4,1.33-39.35,6.89-39.35,6.89s-11.72-15.09-18.38-14.65c-6.67,0.44-70.82,3.7-70.82,3.7s-16.45,13.78-27.12,14.22
			c-10.67,0.44-20-9.78-25.34-16c0,0-32.01-10.19-42.42-12.95c-8.1-2.15-18.92,8.51-18.92,8.51s-8.89-4.45-8.89-12.89
			c0,0-15.56,20.45-16.89,47.56c-1.02,20.81-0.23,43.86,0.2,53.46c0.12,2.74,2.04,5,4.72,5.58c7.36,1.58,22.47,4.61,35.43,5.9
			c51.7,5.17,137.3,11.49,137.3,11.49c0-0.36,93.93,3.31,100.25,1.72c6-1.5,12.06-65.2,32.75-91.34c2.87-3.63,9.19-7.47,15.22-5.74
			c7.14,2.04,15.77,12.43,15.22,38.78c0,0-2.33,31.18-1.88,29.85c0.44-1.33,5.03-10.12,10.7-17.44
			c5.58-7.21,66.27-26.63,70.61-26.03c3.33,0.46,20.91,19.25,20.91,19.25s9.72-57.73,25.99-63.21c14.57-4.92,16.42,26.47,17.03,21.6
			C544.93,189.94,546.08,158.8,541.63,154.36z M483.85,106.35c-0.34,2.06-5.1,5.5-21.88,11.95c-0.43-1.57-4.22-15.45-8.72-29.09
			c-4.09-12.4-7.27-21.88-8.53-25.63c12.29,1.52,28.13,7.84,33.85,10.26c1.35,0.57,2.28,1.78,2.52,3.22
			C482.01,83.54,484.58,101.97,483.85,106.35z"/>
	</g>
	<path class="st1" d="M148.1,94.51c-1.21,0.03-2.4,0.27-3.49,0.81c-3.18,1.59-8.32,5.13-9.2,7.35c-1.1,2.78-0.87,7.5,6.17,10.98
		l21.04-19.98c0,0-1.48-0.96-3.58-0.11C157.44,94.19,151.09,94.43,148.1,94.51z"/>
	<g>
		<path class="st4" d="M279.49,251.74c-3.91-4.69-9.47-11.02-19.3-11.51c-9.83-0.49-70.24-3.49-93.64-4.92
			c-28.26-1.72-69.31-6.88-70.53-6.88c-1.23,0-11.06-2.46-15.73,6.14c-4.67,8.6-5.9,19.66,2.95,22.86
			c8.85,3.19,15.73,7.37,30.23,7.62c14.5,0.25,122.64,8.36,122.64,8.36s42.48-0.69,47.19-7.13
			C287.06,261.13,282.84,255.76,279.49,251.74z"/>
		<path class="st4" d="M320.97,232.67c-14.4-26.82-20.89-29.98-20.89-29.98s11.68,15.7,9.08,20.03c-0.9,1.5-7.41,2.37-11.01,2.43
			c-9.97,0.16-31.72-1.5-32.02-1.13c-0.31,0.37,26.62,4.25,30.27,5.19c6.7,1.73,10.52,7.7,12.76,10.6
			c9.57,12.37,18.16,24.87,20.66,23.84C331.76,262.83,327.52,244.87,320.97,232.67z"/>
		<path class="st4" d="M85.79,211.25c0,0-13.63-0.87-14.27-6.31c-0.18-1.54,3.44-13.76,5.65-19.66c0,0-7.16,12.14-10.41,24.89
			c-2.72,10.7-5.67,31.41-5.67,33.62s-0.12,4.69,2.09,1.25c2.21-3.44,7.72-20.89,13.57-29.44
			C79.47,211.63,85.79,211.25,85.79,211.25z"/>
		<path class="st4" d="M264.09,223.72c2.21-1.23-7.08-6.32-11.06-7.37c-6.15-1.63-14.41,0.1-84.64-5.96
			c-49.37-4.26-53.63-5.19-65.52-6.05c-10.83-0.79-15.48,6.61-15.48,6.61s75.69,7.86,79.63,8.36
			C170.95,219.79,261.88,224.95,264.09,223.72z"/>
	</g>
	<path class="st5" d="M260.58,249.15c-9.83-0.49-70.24-3.49-93.64-4.92c-28.26-1.72-69.31-6.88-70.53-6.88
		c-1.23,0-11.06-2.46-15.73,6.14c-1.46,2.68-2.51,5.6-3.1,8.45c0.95,2.44,2.7,4.43,5.66,5.49c8.85,3.19,15.73,7.37,30.23,7.62
		c14.5,0.25,122.64,8.36,122.64,8.36s42.48-0.69,47.19-7.13c0.08-0.1,0.1-0.21,0.17-0.31c-1.24-1.87-2.73-3.06-2.73-3.06
		S270.41,249.64,260.58,249.15z"/>
	<path class="st5" d="M164.95,213.64c-49.37-4.26-53.63-5.19-65.52-6.05c-5.73-0.42-9.69,1.46-12.19,3.31
		c13.72,1.43,73.31,7.63,76.79,8.06c3.54,0.44,77.63,4.67,93.93,4.61c-2.6-1.67-6.23-3.4-8.38-3.97
		C243.45,217.97,235.19,219.7,164.95,213.64z"/>
	<path class="st1" d="M372.74,205.45c0,0,16.71-4.42,20.64,24.08c3.93,28.51,0.25,55.54-4.92,71.27s-9.83,18.92-14.25,20.64
		c-10.63,4.13-26.22,2.12-32.56,1.03c-2.44-0.42-4.57-1.84-5.73-4.02c-1.79-3.34-4.04-9.81-5.7-22.32c0,0,12.78,0,13.52-3.19
		C353.84,249.15,361.68,221.42,372.74,205.45z"/>
	<path class="st1" d="M522.8,187.29c0,0,17.03,2.81,17.45,41.63c0.41,38.09-8.48,54.8-10.57,57.51c-2.46,3.19-6.39,6.39-17.2,7.13
		s-24.08,0.98-28.26-2.7c-4.82-4.26-6.2-24.65-6.2-23.67c0,0.13,13.11-1.03,18.61-2.81c3.63-1.17,6.84-8.95,9.13-17.21
		c2.71-9.78,4.95-26.26,6.72-32.99C516.31,199.58,521.17,189.05,522.8,187.29z"/>
	<path class="st1" d="M69.16,275.83c0,0,12.12,2.94,34.53,5.33c12.08,1.29,34.53,2.2,34.53,2.2s-3.86,19.1-21.49,19.29
		s-32.01-1.26-37.66-6.25C71.18,289.43,69.16,275.83,69.16,275.83z"/>
	<path class="st5" d="M537.19,157.62c-6.5-1.94-11.41-2.07-16.74,2.52c-3.92,3.38-7.49,9.96-9.78,15.85
		c-4.72,12.09-7.7,19.85-13.19,37.93c0.32-6.76,1.46-13.33,2.95-19.81c1.46-6.5,3.44-12.86,5.79-19.15
		c2.71-6.18,4.77-12.54,10.7-18.1c2.98-2.5,7.04-3.73,10.74-3.4C531.34,153.86,534.67,155.33,537.19,157.62z"/>
	<path class="st5" d="M377.16,155.84c6.87,1.45,13.33,4.92,18.67,9.7c5.28,4.8,9.62,10.99,11.9,17.87
		c2.42,6.71,4.15,13.6,5.55,20.54c1.36,6.97,2.46,13.9,3.07,21.06l-3.89-2.74c15.62-5.08,31.26-10.52,46.32-16.82
		c7.33-3.26,15.25-6.57,20.79-11.13c2.25-1.95,4.1-5.76,5.83-9.29c1.71-3.63,3.32-7.38,4.83-11.18
		c5.89-15.27,11.3-30.91,15.89-46.71c1.11-3.95,2.23-7.94,3-11.86c0.18-0.86,0.36-2.19,0.37-2.4c-0.16-0.57-0.61-1.47-1.1-2.31
		c-1.01-1.7-2.19-3.39-3.38-5.06c-4.82-6.67-10.07-13.09-15.2-19.6c5.96,5.78,11.7,11.75,17.17,18.05c1.36,1.59,2.71,3.19,3.97,4.94
		c0.62,0.9,1.27,1.77,1.78,3.16c0.28,1.86,0.04,2.6-0.05,3.77c-0.59,4.25-1.5,8.29-2.41,12.37c-3.79,16.22-8.18,32.26-13.95,47.98
		c-1.45,3.93-2.96,7.85-4.73,11.74c-1.93,3.82-3.47,7.85-7.36,11.56c-7.31,5.99-14.95,9.1-22.7,12.47
		c-15.51,6.42-31.3,11.54-47.33,16.14l-3.69,1.06l-0.2-3.8c-0.7-13.64-2.33-27.59-6.21-40.73c-1.89-6.47-5.09-12.54-9.76-17.54
		C389.65,162.14,383.76,158.16,377.16,155.84z"/>
	<g>
		<path class="st5" d="M378.11,254.14l-7.01,6.16l9.25-11.08l0.26-18.98c0,0-2.79-2.25-4.96-1.76c-3.57,0.8-4.7,3.34-4.7,4.42
			c0,1.08,1.6,16.85,1.6,16.85l-2.27,8.97c0,0-6.1-13.76-6.57-14.24c-0.94-0.97-3.74,13.99-3.96,16.14
			c-0.54,5.45,0.08,11.85,0.7,12.33c1.19,0.92,10.02,2.51,10.49,3.3c0.18,0.3-1.81,3.15-3.52,5.65c-2.28,3.35-6.98,9.8-6.98,10.87
			s3.24,13.43,5.89,13.43c0.62,0,3.99-11.34,5.95-17.42c1.34-4.17,1.5-12.82,1.64-12.78c0.48,0.13,1.25,11.17,1.25,11.17
			l-0.31,21.27c0,0,6.54-10.34,7.91-15.99c1.09-4.48-1.09-12.29-1.09-12.29l-7.31-14.95c0,0,6.69,7.78,7.06,7.68
			c1.81-0.49,5.77-2.28,5.77-2.28s0.45-11.08,0.15-15.39c-0.3-4.31-1.79-9.24-2.24-9.24S378.11,254.14,378.11,254.14z
			 M373.34,268.23c-0.41,5.08-1.54,5.54-2.44,5.23c-0.9-0.31-1.72-2.17-1.57-5.56c0.12-2.77,0.91-5.07,2.02-5.22
			C372.78,262.5,373.7,263.81,373.34,268.23z"/>
		<path class="st5" d="M374.46,223.04c-11.43,1.07-17.61,25.85-18.88,36.45c-5.97,49.67,11.41,56.84,15.94,56.99
			c5.2,0.18,18.47-9.83,19.75-53.6C392.48,221.44,378.26,222.69,374.46,223.04z M388.67,273.9c0,0-5.81,2.1-5.74,2.24
			c0.62,1.28,2.33,7.68,2.79,13.11c0.09,1.08-1.23,5.77-4.5,12.63c-3.54,7.43-7.31,11.51-7.91,11.51c-0.6,0,0.01-18.92,0.01-18.92
			l-5.82,18.47c-0.9-0.77-4.78-4.93-6.72-8.93c-1.94-4-3.31-13.02-3.31-13.02s3.01-4.22,4.05-5.46c1.04-1.23,5.68-7.93,5.68-7.93
			l-10.01-2.23c0,0-0.79-9.97,0.6-20.2c1.37-10.06,5.43-17.27,5.43-17.27l6.46,13.81l0.57-2.07l-1.92-19.58c0,0,3.47-5.24,8.71-5.03
			c3.73,0.15,6.02,4.07,6.02,4.07l-0.62,15.83l4.6-5.28c0.44,1.72,2.54,10.69,2.54,19.03C389.6,268.71,388.67,273.9,388.67,273.9z"
			/>
	</g>
	<g>
		<path class="st5" d="M522.91,237.83c0,2.08,0.34,5.27,1.42,5.27c0.86,0,1.46-2.3,1.33-5.27c-0.13-2.96-0.51-4.18-1.5-4.13
			C523.12,233.75,522.91,235.51,522.91,237.83z"/>
		<path class="st5" d="M523.74,247.41c0,0,0.77,4.15,0.26,5.78c-0.52,1.63-5.55,17.63-5.55,17.63s1.29,4.45,2.71,5.48
			c1.42,1.04,2.58,0.15,2.58,0.15s2.84-21.34,2.2-24.15C525.29,249.48,523.74,247.41,523.74,247.41z"/>
		<path class="st5" d="M526.32,219.7l-1.55-15.26c-1.94,1.04-5.42,8.74-5.55,9.93c-0.13,1.19,3.23,13.48,3.23,13.48L526.32,219.7z"
			/>
		<path class="st5" d="M521.41,251.26c0.65-1.48,0-9.04,0-9.04s-0.39-8.15-0.9-8.74c-0.52-0.59-4.78-2.37-5.29-1.78
			c-0.52,0.59-1.03,9.19-1.03,12.45c0,3.26,1.16,10.82,1.55,11.56C516.12,256.45,520.77,252.74,521.41,251.26z"/>
		<path class="st5" d="M525.04,199.15c-3.31,0.39-9.74,7.07-11.92,27.58c-2.19,20.52-0.78,34.01,0.79,42.4
			c1.04,5.53,4.72,17.09,10.73,14.36c6.38-2.9,11.95-27.35,12.32-42.63C537.36,224.46,536.37,197.81,525.04,199.15z M535.75,231.4
			c0,0-3.87,6.37-3.62,7.56c0.26,1.19,3.49,5.63,3.49,5.63s0,5.33-1.03,12.45s-4.91,16.45-4.91,16.45s-1.94-11.56-1.94-12
			s-2.2,18.08-2.2,18.08c-1.81,1.19-3.91,0.46-4.91-0.3c-3.87-2.96-4.39-8.74-4.39-8.74s4.52-14.22,4.13-14.67
			c-0.39-0.44-6.2,5.33-6.2,5.33s-1.64-6.67-1.29-17.93c0.26-8.3,1.68-17.19,1.68-17.19s6.07,5.19,6.33,4
			c0.26-1.19-3.87-15.71-3.87-15.71s1.29-4.59,3.49-8.3c3.81-6.42,6.84-4.3,6.84-4.3l0.65,14.82l2.58-11.85c0,0,2.92,5.68,3.87,9.78
			C536.52,223.4,535.75,231.4,535.75,231.4z"/>
		<path class="st5" d="M528.64,223.11c-0.77,1.78-2.58,5.78-2.58,6.52s0.13,2.37,0.13,2.37s4,2.96,4.91,2.52
			c0.9-0.44,2.84-6.52,2.84-8s-1.16-12.45-2.84-15.56C530.88,210.56,529.42,221.33,528.64,223.11z"/>
		<path class="st5" d="M530.71,241.18c-0.65,0-3.87,2.07-3.87,2.07l3.36,21.48c0,0,2.84-11.71,2.84-15.56
			C533.04,245.33,531.36,241.18,530.71,241.18z"/>
	</g>
	<path class="st2" d="M221.94,57.23l-63.74,56.87l108.77,6.87c0,0-94.27-9.16-93.89-12.21C173.47,105.7,221.94,57.23,221.94,57.23z"
		/>
	<path class="st2" d="M236.82,56.85c0,0,109.15-1.91,149.23,11.07l-15.52,51.4c-0.98,3.24-3.98,5.46-7.37,5.44l-67.18-2.26
		c0,0,66.1-2.21,67.93-3.82c3.05-2.67,14.86-45.15,13.74-46.18C368.11,63.72,236.82,56.85,236.82,56.85z"/>
	<path class="st2" d="M405.52,83.18c0,0,3.43-11.07,7.63-13.36c4.2-2.29,22.52-2.67,22.52-2.67s7.63,17.56,13.36,40.07
		c0,0-12.98-30.53-16.03-33.2c-3.05-2.67-15.52-2.91-17.94-0.76C411.62,76.31,405.52,83.18,405.52,83.18z"/>
</g>
</svg>
