<svg id="Layer_1" data-name="Layer 1" xmlns="http://www.w3.org/2000/svg" viewBox="0 0 84.02 70.78"><title>icon-telegram</title><path d="M83.93,4.77L70.81,67.49A4.13,4.13,0,0,1,64.32,70L44.51,55.44,34.42,65.75a3.35,3.35,0,0,1-5.59-1.34L21.54,41.29,2,35.52a2.8,2.8,0,0,1-.22-5.3L78.63,0.28A4,4,0,0,1,83.93,4.77Z" style="fill:#009de0"/><path d="M67.89,12.71L25.74,38.85a1.92,1.92,0,0,0-.82,2.2l5.65,18.22a0.37,0.37,0,0,0,.72-0.07L32.67,47a1.92,1.92,0,0,1,.64-1.22L69,14.2A0.93,0.93,0,0,0,67.89,12.71Z" style="fill:#fff"/></svg>