<svg id="Layer_6" data-name="Layer 6" xmlns="http://www.w3.org/2000/svg" xmlns:xlink="http://www.w3.org/1999/xlink" viewBox="0 0 141.65 269"><defs><clipPath id="clip-path"><polygon points="18.47 114.84 18.47 269 42.69 269 130.39 269 130.39 114.84 18.47 114.84" style="fill:none"/></clipPath></defs><title>logo</title><g style="clip-path:url(#clip-path)"><path d="M71.59,252.68c0-.18,0-0.48-0.08-0.79a10,10,0,0,0-.38-1.69,9.37,9.37,0,0,0-8.94-6.81,9.54,9.54,0,0,0-9.43,11,9.33,9.33,0,0,0,9.41,8.3,10.58,10.58,0,0,0,1.26-.08,9.62,9.62,0,0,0,6.52-3.49,0.57,0.57,0,0,0,.12-0.41,0.49,0.49,0,0,0-.21-0.33c-0.28-.2-1.3-0.69-1.85-1l-0.37-.18a0.84,0.84,0,0,0-.39-0.12,0.51,0.51,0,0,0-.38.22A6.09,6.09,0,0,1,63,259.43a7.18,7.18,0,0,1-.82.05,6.34,6.34,0,0,1-5.91-4.08l0-.06,0.05,0a7.42,7.42,0,0,1,3.11-.63l0.66,0c0.51,0,1,.1,1.57.17a23.5,23.5,0,0,0,3.24.27,15.72,15.72,0,0,0,2.23-.15,11.52,11.52,0,0,0,4.11-1.4,0.77,0.77,0,0,0,.38-0.89v0Zm-3.32-1.16a11.73,11.73,0,0,1-2,.4A10.87,10.87,0,0,1,65,252c-0.86,0-1.79-.07-2.68-0.14h0c-0.83-.06-1.62-0.13-2.38-0.13a11.72,11.72,0,0,0-4,.71v-0.11a6.5,6.5,0,0,1,5.54-5.64,7,7,0,0,1,.81,0,6.67,6.67,0,0,1,6.14,4.79l0,0.07Zm49.37-7v17.3a0.45,0.45,0,0,1-.45.45h-2.44a0.45,0.45,0,0,1-.44-0.45v-17.3a0.44,0.44,0,0,1,.44-0.44h2.44a0.44,0.44,0,0,1,.45.44m0.54-4.41a2.2,2.2,0,1,1-2.2-2.19,2.2,2.2,0,0,1,2.2,2.19m-34.36,3.33a9.45,9.45,0,0,0-9.2,7.16,22.54,22.54,0,0,0-.39,4.43v13.57a0.45,0.45,0,0,0,.45.45h2.41a0.45,0.45,0,0,0,.45-0.45V260l0.13,0.13a9.6,9.6,0,0,0,6,2.56h0.46a9.13,9.13,0,0,0,6.55-2.7,9.82,9.82,0,0,0-6.87-16.6M84,259.53a6.4,6.4,0,0,1-4.47-1.73,6.21,6.21,0,0,1-1.86-4.55,6.38,6.38,0,0,1,6.15-6.57,6.25,6.25,0,0,1,6.15,6.46c0,3.65-2.56,6.39-6,6.39M40.45,243.38a9.44,9.44,0,0,0-9.19,7.16,21.78,21.78,0,0,0-.39,4.43v13.57a0.45,0.45,0,0,0,.44.45h2.42a0.45,0.45,0,0,0,.45-0.45V260l0.12,0.13a9.61,9.61,0,0,0,6,2.56h0.46a9.13,9.13,0,0,0,6.55-2.7,9.82,9.82,0,0,0-6.87-16.6m0.15,16.14a6.38,6.38,0,0,1-4.47-1.73,6.21,6.21,0,0,1-1.87-4.55,6.38,6.38,0,0,1,6.16-6.57,6.24,6.24,0,0,1,6.14,6.46c0,3.65-2.56,6.39-6,6.39m70-2.48c0,2.77-2.3,5.58-7.44,5.62H103.1a10.43,10.43,0,0,1-7.38-3,0.57,0.57,0,0,1-.19-0.37,0.35,0.35,0,0,1,.11-0.27c0.18-.18,1.8-1.46,1.94-1.58a0.6,0.6,0,0,1,.35-0.15,0.59,0.59,0,0,1,.38.2l0,0a7.3,7.3,0,0,0,5,2c2.33,0,3.75-1.2,3.78-2.36s-0.86-2-2.46-2.33l-2.43-.46c-3.88-.76-6-2.61-6-5.21,0-3.28,2.91-5.76,6.77-5.76h0a9.76,9.76,0,0,1,6.58,2.23,0.68,0.68,0,0,1,.25.45,0.52,0.52,0,0,1-.16.39,18.22,18.22,0,0,1-1.66,1.43,0.71,0.71,0,0,1-.44.16,0.79,0.79,0,0,1-.48-0.2,5.86,5.86,0,0,0-4-1.39c-1.66,0-3.42.86-3.42,2.44s1.93,2.09,2.52,2.25c0.85,0.24,1.77.42,2.67,0.59l1.1,0.22c1.1,0.23,4.72,1.28,4.72,5.11m10.46,1.59a2,2,0,1,0,2,2,2,2,0,0,0-2-2m0,3.67a1.66,1.66,0,1,1,1.64-1.65,1.64,1.64,0,0,1-1.64,1.65m0.75-2a0.63,0.63,0,0,0-.65-0.66h-0.78v2h0.4V261h0.13l0.5,0.7h0.48l-0.51-.73a0.6,0.6,0,0,0,.44-0.63m-0.66.27H120.8V260h0.39a0.27,0.27,0,0,1,0,.54" style="fill:#fff"/><path d="M114,210.37a56,56,0,1,1,0-79.14,56,56,0,0,1,0,79.14" style="fill:#fff"/><path d="M118,142.56a36.22,36.22,0,0,1-13.32,40C89,194.15,66.15,194.16,34.6,204.1A51.92,51.92,0,0,0,118,142.56" style="fill:#2a5a90"/><path d="M105.58,129.25a51.93,51.93,0,0,0-72.93,72.38,107.8,107.8,0,0,0,72.93-72.38" style="fill:#c51437"/></g><polygon points="72.94 97.17 71.93 97.25 71.93 0 72.94 0 72.94 97.17" style="fill:#fff"/><path d="M112.23,115.53a216.92,216.92,0,0,1-24.59-12.59c-3.55-1.74-6.22-.29-11.19-0.36a19.86,19.86,0,0,1-1.29,2.8c6.76,0.86,13.84,5.12,21.41,8.27,2.49,1,13.48,7.18,15,8.26l9.09-1.55C119.46,118.07,114.77,116.63,112.23,115.53Z" style="fill:#fff"/><path d="M83.08,96.69c-1.86.41-4.37,0.89-5.92,1.15a12.23,12.23,0,0,1-.56,4.16c16.46-1.52,20.6-4.36,29.55-8.19,2.47-1.06,8.71-5.79,11.85-10.17,1.78-2.78,1.62-4.61-.86-6a7.38,7.38,0,0,0-3.24-.92c0.95,0.39,2.62,1.48,2.52,2.33a3.88,3.88,0,0,1-1,1.82C109.05,88.64,93.29,94.43,83.08,96.69Z" style="fill:#fff"/><path d="M38.51,80.52a15.13,15.13,0,0,1,2.89,1C37.79,78,34,76.32,30.25,79.3a6,6,0,0,0-2,5.75C29,90.29,34.2,96.92,42.56,99.85a33.93,33.93,0,0,0,6,1.49c5.79,0.91,11.73.52,17.58,0.27-2.83-2.3-8.39-2.13-11.51-5.08-3.44-1.14-16.69-.83-21.21-3.76S27.78,78.17,38.51,80.52Z" style="fill:#fff"/><path d="M46.09,85.46c3.33,3.87,6.49,7.82,9,10.21a15.49,15.49,0,0,0,6.25,3.14,13.72,13.72,0,0,1,5.35,2.39l0.85-2.81c-1.26-1.23-3.46-2.87-5.23-4.56-5.33-5.07-11-11.62-18.72-13.91-3.17-.94-4.92-2.55-6.8-2.64H36.68l0.14,0C39.5,78,42.72,81.53,46.09,85.46Z" style="fill:#fff"/><path d="M67,102.48c-9.06.58-22.62,7.33-30.87,10.6-2.44,1-5.51,2.19-6.41,3.34,0.55,1.53.94,7.5,0.95,9,2.38-2.44,6.05-4.12,9.24-5.5,11.65-5.06,7.18-5.72,24.51-11.47,2.48-.83,6.45-2.09,8.7-3A30,30,0,0,0,67,102.48Z" style="fill:#fff"/><path d="M90.8,93.58c7.77-5.61,13.51-16.13,24.53-14.86A1.68,1.68,0,0,0,115,78.2l0,0c-1.28-1.33-5-2.06-8-1.22-4.06,1.07-8.46,3.52-11.28,5-7,3.67-15.35,14.11-18.42,15.41,3.09-1.06,7.39-1.64,10.52-2.73Z" style="fill:#fff"/><path d="M75.62,102.51a11.92,11.92,0,0,0,.76-4.88,18.72,18.72,0,0,1-4.57.55,15.16,15.16,0,0,0-3.57.49l-1,3.2a24.13,24.13,0,0,1,4.58,2c0.81,0.44,2.43,1.28,2.49,1.31A12.41,12.41,0,0,0,75.62,102.51Z" style="fill:#fff"/><line x1="136.29" y1="90.8" x2="129.41" y2="106.29" style="fill:none;stroke:#fff;stroke-linecap:round;stroke-linejoin:round;stroke-width:1.7007874250412px"/><line x1="124.99" y1="95.15" x2="140.64" y2="102.09" style="fill:none;stroke:#fff;stroke-linecap:round;stroke-linejoin:round;stroke-width:1.7007874250412px"/><line x1="124.83" y1="101.7" x2="140.8" y2="95.55" style="fill:none;stroke:#fff;stroke-linecap:round;stroke-linejoin:round;stroke-width:1.7007874250412px"/><line x1="135.89" y1="106.61" x2="129.74" y2="90.63" style="fill:none;stroke:#fff;stroke-linecap:round;stroke-linejoin:round;stroke-width:1.7007874250412px"/><line x1="62.12" y1="56.92" x2="55.24" y2="72.41" style="fill:none;stroke:#fff;stroke-linecap:round;stroke-linejoin:round;stroke-width:1.41732287406921px"/><line x1="50.83" y1="61.27" x2="66.47" y2="68.22" style="fill:none;stroke:#fff;stroke-linecap:round;stroke-linejoin:round;stroke-width:1.41732287406921px"/><line x1="50.66" y1="67.82" x2="66.64" y2="61.67" style="fill:none;stroke:#fff;stroke-linecap:round;stroke-linejoin:round;stroke-width:1.41732287406921px"/><line x1="61.72" y1="72.73" x2="55.57" y2="56.75" style="fill:none;stroke:#fff;stroke-linecap:round;stroke-linejoin:round;stroke-width:1.41732287406921px"/><line x1="9.1" y1="122.81" x2="3.92" y2="111.59" style="fill:none;stroke:#fff;stroke-linecap:round;stroke-linejoin:round;stroke-width:1.41732287406921px"/><line x1="12.3" y1="119.34" x2="0.71" y2="115.07" style="fill:none;stroke:#fff;stroke-linecap:round;stroke-linejoin:round;stroke-width:1.41732287406921px"/><line x1="8.64" y1="111.41" x2="4.37" y2="123" style="fill:none;stroke:#fff;stroke-linecap:round;stroke-linejoin:round;stroke-width:1.41732287406921px"/><line x1="12.11" y1="114.61" x2="0.9" y2="119.79" style="fill:none;stroke:#fff;stroke-linecap:round;stroke-linejoin:round;stroke-width:1.41732287406921px"/></svg>