<svg id="Layer_1" data-name="Layer 1" xmlns="http://www.w3.org/2000/svg" viewBox="0 0 180.47 248.57"><title>pepsi</title><path d="M85.66,222.31v-0.06c0-.29-0.08-0.77-0.14-1.27a16.37,16.37,0,0,0-.6-2.73c-2.12-6.67-7.78-11-14.42-11a15.86,15.86,0,0,0-2,.13A15.38,15.38,0,0,0,55.28,225a15.05,15.05,0,0,0,15.18,13.38,17.17,17.17,0,0,0,2-.13A15.51,15.51,0,0,0,83,232.61a0.91,0.91,0,0,0,.2-0.67,0.78,0.78,0,0,0-.34-0.53c-0.46-.32-2.09-1.12-3-1.55l-0.59-.28a1.34,1.34,0,0,0-.63-0.2,0.82,0.82,0,0,0-.62.35,9.81,9.81,0,0,1-6.25,3.42,11.46,11.46,0,0,1-1.32.08c-4.14,0-8.32-2.78-9.53-6.58l0-.1,0.09,0a12,12,0,0,1,5-1c0.36,0,.72,0,1.07,0,0.83,0.07,1.66.17,2.53,0.28a37.88,37.88,0,0,0,5.23.43,25.49,25.49,0,0,0,3.59-.25c4.74-.91,6.61-2.25,6.63-2.26a1.25,1.25,0,0,0,.61-1.44m-5.36-1.94a18.77,18.77,0,0,1-3.18.64,17.56,17.56,0,0,1-2.16.12c-1.38,0-2.88-.11-4.33-0.23H70.57c-1.34-.1-2.62-0.2-3.83-0.2a18.71,18.71,0,0,0-6.52,1.15l0-.18a10.48,10.48,0,0,1,8.94-9.1,11.2,11.2,0,0,1,1.31-.08,10.76,10.76,0,0,1,9.89,7.73l0,0.12Z" style="fill:#0069aa"/><path d="M159.9,209a0.72,0.72,0,0,0-.72-0.71h-3.93a0.72,0.72,0,0,0-.71.71v27.9a0.72,0.72,0,0,0,.71.72h3.93a0.72,0.72,0,0,0,.72-0.72V209Z" style="fill:#0069aa"/><path d="M157.22,198.35a3.54,3.54,0,1,0,3.54,3.54,3.55,3.55,0,0,0-3.54-3.54" style="fill:#0069aa"/><path d="M105.13,238.38l0.75,0A14.71,14.71,0,0,0,116.43,234a15.84,15.84,0,0,0-11.07-26.76,15.23,15.23,0,0,0-14.83,11.55A36.22,36.22,0,0,0,89.9,226v21.88a0.73,0.73,0,0,0,.72.72h3.89a0.73,0.73,0,0,0,.73-0.72v-13.8l0.21,0.21a15.48,15.48,0,0,0,9.67,4.12m0.17-25.81c5.56,0,9.91,4.58,9.91,10.42s-4.13,10.31-9.61,10.31a10.32,10.32,0,0,1-7.21-2.79,10,10,0,0,1-3-7.34c0-5.84,4.45-10.6,9.92-10.6" style="fill:#0069aa"/><path d="M35.21,238.38l0.74,0A14.72,14.72,0,0,0,46.52,234a15.84,15.84,0,0,0-11.08-26.76,15.22,15.22,0,0,0-14.83,11.55A35,35,0,0,0,20,226v21.88a0.72,0.72,0,0,0,.72.72h3.91a0.73,0.73,0,0,0,.72-0.72v-13.8l0.2,0.21a15.49,15.49,0,0,0,9.69,4.12m0.17-25.81c5.55,0,9.91,4.58,9.91,10.42s-4.13,10.31-9.61,10.31a10.29,10.29,0,0,1-7.21-2.79,10,10,0,0,1-3-7.34c0-5.84,4.45-10.6,9.93-10.6" style="fill:#0069aa"/><path d="M124.56,233.49a16.82,16.82,0,0,0,11.9,4.87h0.15c8.29-.05,12-4.59,12-9.06,0-6.17-5.84-7.86-7.62-8.23l-1.77-.35c-1.45-.28-2.94-0.57-4.31-0.95-0.95-.25-4.06-1.29-4.06-3.62,0-2.56,2.84-3.94,5.51-3.94a9.46,9.46,0,0,1,6.51,2.25,1.27,1.27,0,0,0,.77.32,1.15,1.15,0,0,0,.71-0.26A30.09,30.09,0,0,0,147,212.2a0.84,0.84,0,0,0,.26-0.63,1.1,1.1,0,0,0-.4-0.72,15.73,15.73,0,0,0-10.62-3.59h0c-6.23,0-10.92,4-10.92,9.29,0,4.2,3.45,7.18,9.71,8.41l3.91,0.75c2.58,0.48,4,1.84,4,3.75s-2.33,3.8-6.09,3.8a11.76,11.76,0,0,1-8-3.26l0,0a1,1,0,0,0-.61-0.32,1,1,0,0,0-.57.24c-0.24.19-2.85,2.26-3.13,2.55a0.57,0.57,0,0,0-.18.44,0.92,0.92,0,0,0,.3.6" style="fill:#0069aa"/><path d="M165.47,231.87a3.24,3.24,0,1,1-3.2,3.26,3.23,3.23,0,0,1,3.2-3.26m0,5.92a2.68,2.68,0,1,0-2.64-2.67,2.65,2.65,0,0,0,2.64,2.67m0.5-2.21a1,1,0,0,0,.7-1,1,1,0,0,0-1-1.07h-1.26v3.25H165v-1.12h0.21l0.81,1.12h0.77Zm-0.34-1.45a0.44,0.44,0,0,1,0,.87H165v-0.87h0.62Z" style="fill:#0069aa"/><path d="M154,154a90.23,90.23,0,1,1,0-127.61A90.23,90.23,0,0,1,154,154" style="fill:#fff"/><path d="M160.48,44.7A58.4,58.4,0,0,1,139,109.26c-25.28,18.62-62.12,18.64-113,34.67A83.71,83.71,0,0,0,160.48,44.7" style="fill:#0069aa"/><path d="M140.45,23.23A83.73,83.73,0,0,0,22.85,139.94,173.82,173.82,0,0,0,140.45,23.23" style="fill:#ef3e42"/></svg>