<svg id="Layer_4" data-name="Layer 4" xmlns="http://www.w3.org/2000/svg" viewBox="0 0 283.02 252.71"><title>SnowB</title><path d="M192.24,16.48a13.8,13.8,0,0,1,1.16,7.89s3.79-4.87,7-8.24,0.59-4-1.62-3.27a7.89,7.89,0,0,0-3.64,3.33,4.2,4.2,0,0,1,1.54-3.74,9.86,9.86,0,0,1,3.7-2,8.59,8.59,0,0,1-3.95-1.36c-2.58-1.42-10,2.89-10,2.89A7.71,7.71,0,0,1,192.24,16.48Z" style="fill:#004b8d"/><path d="M282.33,159.25a28.47,28.47,0,0,1-9.8,9.58c-7,4.29-77.51,33.67-87.84,38.64S139.18,232.29,118.45,237c-8,1.8-15.49,2.76-20.24,3.37-8.5,1.1-10.76,5.52-10.76,5.52s-2.89,11.71,16.47,4.56,124.45-60.94,148.54-68.88,29-14.34,30.12-16.09S282.33,159.25,282.33,159.25Z" style="fill:#004b8d"/><path d="M279.17,157.42s-6-.63-13.23,5-8.75,9.56-19.2,15.14-13,6.82-13,6.82,22.64-10.41,27.86-14.69S279.17,157.42,279.17,157.42Z" style="fill:#004b8d"/><path d="M34.37,144.79a37.69,37.69,0,0,1-3.83,2.28c-3.82.15-11.12,0.37-12.37,0.07-1.7-.42-3.59-2.56-3.44.38a4.66,4.66,0,0,0,2.45,4l-3.27,1.65a4,4,0,0,0-1.23,5.76c2.54,4.72,10.11,2.89,11.2,2.92s2.67-.05,1.82,3,1.6,3.89,1.6,3.89,1-3.83,2.61-5.09,8.28-4.1,8.28-4.1a64.32,64.32,0,0,1-2.77-6.15C34.73,151.38,34.37,144.79,34.37,144.79Z" style="fill:#004b8d"/><path d="M98.65,132.92l0.05,7.88,0,0.41c-1,4.55-1.7,8.88-1.19,10.1,1.1,2.64,2.85,6.51,2.85,6.51a62.76,62.76,0,0,1,5.17,6.66l0,0.05a14.65,14.65,0,0,0,2.22,5.59A21.7,21.7,0,0,0,116,175.8s2.82,1.29,3.35,3.37,1.2,4.42,1.2,4.42c0.73,7.29,1.82,18.65,1.83,19.87,0,1.75,4.95,6.91,4.95,6.91s3.8,8,4.21,6.19a76.06,76.06,0,0,1,2.27-8.12l0.85,1.59s0.29,6.84,1.32,10.24,4.59,6.39,4.59,6.39,11.65-5.17,16.24-7.78c3.88-2.21,12.45-6.77,13.72-7.81s1-6.51-2.2-9.16c-1.67-1.37-4.43-.94-7,0.19a6.93,6.93,0,0,1-3.41-2l0.05,0-0.23-.12a16.12,16.12,0,0,1-2.37-3c-0.17-.28-0.35-0.58-0.52-0.88l-6-14.67-1.35-9.86c0.14-1.38.14-3.94,0.14-6.53l1.14-.73,0.57-.15c1.08-.28,3.61-0.95,8.79-2.38l3.72-1.14a86.72,86.72,0,0,0,12.49-5.1s3-.3,3.93,2.18c0.53,1.35,1.67,4.83,2.6,7.72,0.49,1.55,1,3.09,1.42,4.44l1.67,4.68c1,2.65,1.15,5.72,1.24,9l0,7.32,0.41-.26a43.47,43.47,0,0,0,4.87,12.07l4.78-1.94s9-4.93,12.63-5.74,16.2-6.55,18.55-10.6-1-7.68-2.07-8.57c-0.86-.71-5,0.13-8.51.79-7.16-1.43-8.79-4.65-8.79-4.65-0.37-2-2.23-16.43-3.79-26.1l-1.56-8.07a51.23,51.23,0,0,0-8.23-16.95c-4.64-6.1-11.47-5.81-20.5-3-6.49,2-13.93,8.64-17.61,12.21a6.69,6.69,0,0,0,.42-1.67c-0.05-1.37-.77-7.86.21-11.84,0.31-1.24.58-2.55,0.82-3.94,0,0,3.17-11,3.17-14.83s-1.8-7.13-1.83-8.82c0,0,.8-8.08,4-10.68S173.51,60.12,175,55l1.61-3.92a203.55,203.55,0,0,1,13-22.23c3.62-5.08,2.77-8.28.84-12.36s-6.87-3.21-7.37-2.09c-0.37.83-5.54,8.28-9.24,13l-2.11,2.43c-2.54,2.08-6.19,8.53-6.19,8.53s-3.08,3.65-5.16,5.87c-2.17,1.43-4.14,5.13-4.14,5.13s-1.58,2.14-2.1,3.11a6.54,6.54,0,0,1-1.57,1.77c-7.3,3.94-11,13.62-11,13.62L138.8,68h0c0-.5-0.07-1-0.12-1.56-2.91-16.16-15.4-15.6-15.4-15.6-7.94-.51-13.36,6.46-13.36,6.46l0,0.13A18.16,18.16,0,0,0,105.7,63c-4.42,8.69-1.86,13.55.91,16l0.31,1.19-1.76,1.14-2.54,4.38a16,16,0,0,1,2.54-4.38C93.43,88,88.72,100.65,93.8,105.45l0.5,2.31c-2.1-1.12-23.12,15.45-23.12,15.45l-2.5,1.63s-6.38,3.31-8.78,5.68L57.57,132c-0.63-.45-12.11,7.15-12.11,7.15a0.94,0.94,0,0,1,0,.12l-2.09,1.25c-0.91.12-7.39,4-7.39,4s-0.52,10.22,4.59,13.8c0,0,8.09-2.87,11-5l0.05,0a11.38,11.38,0,0,1,3.62-1.53c-0.1.78,13.9-5.57,16.07-7.39l5.21-2.09S97.41,135.55,98.65,132.92Z" style="fill:#004b8d"/><path d="M189.81,128.93l1.56,8.07s2.83,23.19,2.86,23.75a11.53,11.53,0,0,0,.92,2.35s1.63,3.22,8.79,4.65,2.67,6.19,2.67,6.19l-20.14,9.7-8.26-25.32-0.45-9.06Z" style="fill:#004b8d"/><path d="M28.65,149.41l11-5s0.53-.6,3.67-1.57,16.07-7.39,16.07-7.39l5.21-2.09,8.32-18.74-13.69-.24L56.75,116,48,121.65l-2.33,1.45-15.51,9.32Z" style="fill:#004b8d"/><path d="M132,118.26c1.29-.72,13-14.54,13-14.54s3.17-11,3.17-14.83-1.8-7.13-1.83-8.82,0.51-10,.51-10L163,46.16l1.61-3.92L167,20.78l-5.08-2.26L159.83,21l-6.19,8.53s-3.92,4.66-5.9,6.65a26.1,26.1,0,0,0-3.4,4.35s-1.58,2.14-2.1,3.11a6.54,6.54,0,0,1-1.57,1.77L136.06,64S131.6,118.47,132,118.26Z" style="fill:#004b8d"/><path d="M82.45,91.74L81.84,96.4l0.54,2.49,1.83,19.72,2.51,5.47L86.77,132l1.7,17a63.27,63.27,0,0,1,5.17,6.65c2.28,3.47,10.44,11.32,10.44,11.32s2.82,1.29,3.35,3.37,1.2,4.42,1.2,4.42l14.11,26.45,6.66,8.48s10.16,1,10.77.52,14.23-14.61,14.23-14.61l-4.75-2.29s-3-.09-6.15-5.17S137,172.56,137,172.56l-1.35-9.86-1.46-5.51,2.74-1.75,9.35-2.53,3.72-1.14,12.49-5.1s3-.3,3.93,2.18,4,12.16,4,12.16l1.67,4.68,3.1,3.36-1.86,5.62,0,7.32,7.14-4.57-3.87-31.19-3-27.23-20.6,9.24L143.2,140.1l-13.07-25.68L104.26,94Z" style="fill:#004b8d"/><path d="M87.49,88c0-.47,1.75-8.66,1.75-8.66l4-6.88L95,71.33l-2-7.75,3.7-10.16L98,48.37s5.42-7,13.36-6.46c6.62,0.43,12.78,12,12.78,12l2.75,5.16L129.7,59l7-.06-3.18,33-24,14.91Z" style="fill:#004b8d"/><path d="M174.53,3.18s7.43-4.32,10-2.89a8.59,8.59,0,0,0,3.95,1.36,9.93,9.93,0,0,0-3.7,2,4.2,4.2,0,0,0-1.54,3.74A7.89,7.89,0,0,1,186.88,4c2.21-.75,4.87-0.09,1.62,3.27s-7,8.24-7,8.24a13.8,13.8,0,0,0-1.16-7.89A7.69,7.69,0,0,0,174.53,3.18Z" style="fill:#148dd8"/><path d="M101.06,77.22c1.23,1.51,3.85,4.7,6.81,4.48s5.13-1.47,5.59-3.16c0.62-2.3,3.81.81,5,.59A10.55,10.55,0,0,0,123,76.55c3.65-4.44,2.13-6.66,1.3-7.71,0,0-11.16,6.38-17.79,6.2a96.08,96.08,0,0,0,17.29-7.1l-0.94-1.34s-10.11,3.4-14.19,4.55-9.24,2.54-9.91,2.3S95,71.35,95,71.35C98.71,76.25,98.77,74.42,101.06,77.22Z" style="fill:#fff"/><path d="M92.27,144.43s0.5,13,3.62,16.85a21.7,21.7,0,0,0,8.18,5.68c-3.42-8-2.27-12.14,3-21-1,8.38-2,14.76,0,20.19,0.12,0.32,12.49-14.58,12.67-12.74,0.08,0.77-11.18,20.39-11.08,21.32,0.73,7.29,1.82,18.65,1.83,19.87,0,1.75,4.95,6.91,4.95,6.91s3.8,8,4.21,6.19c4.65-20.62,12.26-23.22,16.63-22.2a20.64,20.64,0,0,1,7.43,3.46l-6.73-16.41-8.52,5.56s6.91-12.73,7.18-15.42,0-9.91.32-13-2.35-15.4-4.36-18.71-8.46-10.76-13.31-8.91-11.09,2-16.53,7.88S92.27,144.43,92.27,144.43Z" style="fill:#fff"/><path d="M122.74,201.19s0.29,6.84,1.32,10.24,4.59,6.39,4.59,6.39,11.65-5.17,16.24-7.78c3.88-2.21,12.45-6.77,13.72-7.81s1-6.51-2.2-9.16-10.55,1.42-12.39,4.35-6.23,10.91-6.23,10.91-0.93-3.77,2.34-9.61c3.1-5.53,6-7.45,6-7.45l-5.16-2.84s-5.18-.71-10.49,5.76-4.29,9.88-4.29,9.88Z" style="fill:#fff"/><path d="M137.71,121.14c-1.46-.92,3.45,2.37,3.45,2.37S152,111.76,161.08,109s15.86-3.09,20.5,3a51.43,51.43,0,0,1,8.23,16.95c0.25,0.83-7.78,15.84-7.44,17.74,0.21,1.15,8.77-11.07,9-9.67,1.56,9.67,3.42,24.1,3.79,26.1,0.32,1.75-4.16,2.79-7.51,3.33l5.18,0.5s2.88,0.56,5.75,1.15c1,0.2-8.52,6.49-6.53,12.56,3.11-6.95,11-12.72,11.91-12.89,3.54-.67,7.65-1.5,8.51-0.79,1.08,0.88,4.41,4.53,2.07,8.57s-15,9.79-18.55,10.6-12.63,5.74-12.63,5.74l-4.78,1.94s-4.14-6.8-5.05-13.12c-0.17-1.19,3.47-7.63,3.41-8.8s-3.57,4-3.61,2.8c-0.09-3.27-.21-6.34-1.24-9-0.09-.24,1.68-7.79,1.68-7.79s-3,4.29-3.35,3.11c-1.7-5.25-4.23-13.43-4.23-13.43l-1.53-9.88,3.15-8.43,2.52-7.72s-6,9.75-8.7,14.28c-2.3,3.89.82,10.84,0.82,10.84a87.33,87.33,0,0,1-12.49,5.1c-0.71.22-1-11.28-1-11.28s-1.68,12.12-2.75,12.41c-8.5,2.35-9.91,2.65-9.35,2.53s-0.34-15.57-.34-15.57-1.64-13.77-1-13.74,2.75-1.52,2.55-2.21c-1.15-4,.36-1.37,2.06,4.45" style="fill:#fff"/><path d="M75.52,237S72.63,248.71,92,241.56s124.45-60.94,148.54-68.88,29-14.34,30.12-16.09-0.25-6.18-.25-6.18a28.47,28.47,0,0,1-9.8,9.58c-7,4.29-77.51,33.67-87.84,38.64s-45.51,24.82-66.24,29.48c-8,1.8-15.49,2.76-20.24,3.37C77.79,232.58,75.52,237,75.52,237Z" style="fill:#fff"/><path d="M267.25,148.58s-6-.63-13.23,5-8.75,9.56-19.19,15.14-12.95,6.82-12.95,6.82,22.64-10.41,27.86-14.69S267.25,148.58,267.25,148.58Z" style="fill:#fff"/><path d="M129.7,59s3.67-9.68,11-13.62c3.2,3.63,6.23,10.81,6.25,10.8-1-9.18-3.17-12.37-2.58-15.68,0,0,4-7.51,6.88-5.28s5.86,8.88,5.86,8.88l-3.43-14.6s3.65-6.44,6.19-8.53c0.4-.32,1.47-1.08,3.35,5.39,0.38-5.73-1.76-7.15-1.24-7.82,3.7-4.68,8.87-12.14,9.24-13,0.5-1.12,5.44-2,7.37,2.09s2.78,7.28-.84,12.36a203.55,203.55,0,0,0-13,22.23c-0.37.78-2.3-7.65-2.57-7s1.1,10.43,1,10.92c-1.48,5.1-9.64,20.62-12.81,23.22s-4,10.68-4,10.68l-2.67-16.21s-2,12.24-1,14.28c5.36,11.35,3.78,15.07,2.68,17.9-1.66,4.22-8.84,16.13-8.91,16.57s8.66-9.35,8.59-8.9c-0.24,1.4-.51,2.71-0.82,3.94-1,4-.26,10.47-0.21,11.84s-4.13,10.74-4.13,10.74-4.59-15.3-7.56-16.76-6.08,8.68-5.84,5.84c0.15-1.58.31-13.06,0.14-14.37-0.68-5.41-3.94-8.56-10.71-9.82,0,0,5.6-.18,11.93-7.13s6.69-11.41,5.51-17.17A87.29,87.29,0,0,0,129.7,59Z" style="fill:#fff"/><path d="M126.36,82.44a25.09,25.09,0,0,0,3.26-16c-5.87,14.71-13.79,19-22.81,17.78,0,0,3.1,6.66,8.37,6.47C121,90.45,123.08,87.73,126.36,82.44Z" style="fill:#cb0026"/><path d="M106.1,97.14c2.67-1.48,6.37-5.76,6.37-5.76a17.42,17.42,0,0,0-7.73-.8C89,93,86.66,80.51,93.23,72.47c-16.38,9.32-19.07,30.28-.52,25.25a70.93,70.93,0,0,1,8.1-1.75,32.72,32.72,0,0,1-7.89,4.44S90.51,107,91.1,109s1.1,8.28-.62,11.17c-1.54,2.58-5.95,19.67-4.85,22.31S88.48,149,88.48,149s5-12.92,9.33-17.54a18.36,18.36,0,0,0,5-9.16s-8.83,7-9.46,7.54c-0.14.12,8.12-21.26,16.46-29.7l-13.63,5.82S103.43,98.62,106.1,97.14Z" style="fill:#fff"/><path d="M111.34,41.93s10.16,5,6.28,14.3c-2.84,6.83-6.69,9.16-9.89,9.7-1.21-1.57-3.93-4.26-2.92-11.27,0.29-2,1.93-9.28,1.93-9.28s-7.07,7.9-8.67,14.42c-1.62-6.06,3.1-13.16,3.1-13.16s-4,.81-7.4,7.47c-7.33,14.42,4.53,18.31,4.75,18.28C115.37,69.8,121.58,61.33,126,67.5c0.67-.91,1.3-3.62.71-10C123.84,41.36,111.34,41.93,111.34,41.93Z" style="fill:#fff"/><path d="M106.55,37.67" style="fill:#d0cfcc"/><path d="M18,154.82c1.56-1.26,8.28-4.1,8.28-4.1a64.32,64.32,0,0,1-2.77-6.15c-0.67-2-1-8.63-1-8.63a37.69,37.69,0,0,1-3.83,2.28c-3.82.15-11.12,0.37-12.37,0.07-1.7-.42-3.59-2.56-3.44.38a4.66,4.66,0,0,0,2.45,4L2,144.31a4,4,0,0,0-1.22,5.76C3.3,154.79,10.87,153,12,153s2.67-.05,1.82,3,1.6,3.89,1.6,3.89S16.4,156.08,18,154.82Z" style="fill:#148dd8"/><path d="M133.63,88.08l-5-1.13a22.29,22.29,0,0,1-11.52,4.81c-2.82.28-7.21-1-7.21-1l-8.38,5s-7.71,9.53-6.84,9.56,1.85,5.33,1.85,5.33l-4.1,19,7-.2s5.56-7.79,19.1-10.21,18.89,21.44,18.89,21.44l2.74-24.06s-6.39-3.29-6.58-4.54S133.63,88.08,133.63,88.08Z" style="fill:#fff"/><path d="M88.82,107.93a19.3,19.3,0,0,1,.92,7.55c-0.28,3.07-2,6.5-3,8.6-1.23,2.63-22.09,9.23-22.09,9.23,2-6.37,1.61-11.95.83-12.14-0.62,5.1-3.89,12.41-6.05,14.23s-16.17,8.17-16.07,7.39a14.52,14.52,0,0,0-.87-7.26s0.13,6.66-2.8,8.84-11,5-11,5c-5.1-3.58-4.59-13.8-4.59-13.8s7.08-4.23,7.49-4,0.61,5.05.61,5.05c1.2-1.48,1.38-6.42,1.38-6.42s11.48-7.6,12.11-7.15c1.77,1.26,1.78,6.74,1.78,6.74a14.36,14.36,0,0,0,.55-8.19c2.4-2.37,8.78-5.68,8.78-5.68l1.49,6.53a15.33,15.33,0,0,0,1-8.16s21-16.57,23.12-15.45a17,17,0,0,0,8.11,1.54Z" style="fill:#fff"/><path d="M138.46,73.1s-0.62,4.44.76,6.89,4.59,8,4.13,11.34-11.15,22.16-11.15,22.16,5.91-17.7,5.9-22.1S135,84.18,138.46,73.1Z" style="fill:#148dd8"/><path d="M141.95,109.45s-3.1,5.19-3.17,7.92,1.29,7.72,1,12.87c0,0,1.52-8.8,1.81-11.54S141.95,109.45,141.95,109.45Z" style="fill:#148dd8"/><path d="M175.76,109.65A32.62,32.62,0,0,1,186.07,127c0.83,3.57-2.17,11.23-6.63,18.59,0,0,4.19-12.78,4-16.36C183.19,124,175.76,109.65,175.76,109.65Z" style="fill:#148dd8"/><path d="M190,142.53s3.14,16.64,2.82,18.75-5.57,2-5.57,2a6.54,6.54,0,0,0,2.86-5.81C189.9,153.45,190,142.53,190,142.53Z" style="fill:#148dd8"/><path d="M172.7,6.12a11.65,11.65,0,0,1,4.46,5.24c1.21,3.3.84,4.16-.5,6.74s-11.57,20.52-11.57,20.52,9.88-20.85,9.28-24.39S172.7,6.12,172.7,6.12Z" style="fill:#fff"/><path d="M159.37,33.44s1.72,9.15,1.42,11.68-4.4,12.81-6,15-6.84,6-7.36,8.13c0,0,2.6-6.85,4.75-9.89s6.18-10.8,6.66-13.77S159.37,33.44,159.37,33.44Z" style="fill:#fff"/><path d="M106.46,130.11s3.64-2.7,6.55-3.26,5.49,0.57,7.55-.17,7.55,4,8.48,5.87a79.88,79.88,0,0,1,3.52,11.58s-4.21-8.61-8.56-11.75S106.46,130.11,106.46,130.11Z" style="fill:#148dd8"/></svg>