<svg id="Layer_4" data-name="Layer 4" xmlns="http://www.w3.org/2000/svg" xmlns:xlink="http://www.w3.org/1999/xlink" viewBox="0 0 198.36 203.18"><defs><clipPath id="clip-path" transform="translate(3.09)"><path d="M89.76,9.18s0,1.48-.13,5.71q-0.08,2.71-.23,6.22c-0.12,2.66-.27,5.61-0.48,8.77-0.24,3.71-.56,7.7-1,11.79,0,0.26-.05.53-0.08,0.79-0.2,2-.34,4-0.48,6-0.05.69-.12,1.38-0.17,2.07-0.11,1.69-.2,3.38-0.29,5.05h0c-0.11,2.1-.21,4.18-0.31,6.21-0.15,3.05-.3,6-0.49,8.72a76.17,76.17,0,0,1-1.4,11.12,19.94,19.94,0,0,1-1,3.38c-0.91,2.18-1.89,4.21-2.92,6.16-0.52,1-1.11,1.91-1.66,2.87-0.13.23-.26,0.46-0.4,0.69h0l-0.18-.19c0.05,0.08.09,0.18,0.14,0.26-0.33.56-.64,1.15-1,1.7-1.38,2.19-2.85,4.32-4.44,6.46q-0.75,1-1.53,2c-1.56,2-3.22,4.13-5,6.31l-2.55,3.15-0.43.54-2.12,2.62-0.09.1c-0.17.21-.35,0.39-0.52,0.59a18.31,18.31,0,0,1-2,2,17.35,17.35,0,0,1-4.87,2.9,28.83,28.83,0,0,1-8.41,1.7c-1.57.12-3.19,0.18-4.86,0.23-2.59.08-5.29,0.14-8.11,0.36a53.81,53.81,0,0,0-8.55,1.31,42.56,42.56,0,0,0-5.36,1.66c-16.62,6.39-14.66,25.94-3.59,32.09,0.8,0.45,1.73.91,2.73,1.37h0c0.79,0.37,1.62.74,2.52,1.11,1.12,0.46,2.34.9,3.61,1.34,0-.73,0-1.46,0-2.19a22.16,22.16,0,0,1,2.37-8.48h0a24.1,24.1,0,0,1,13.15-11.52,48.82,48.82,0,0,1,6-1.87,59.41,59.41,0,0,1,9.38-1.44c2.61-.2,5.07-0.28,7.45-0.35l0.92,0c1.58-.05,3.12-0.1,4.61-0.22A23.36,23.36,0,0,0,75,136.92a11.74,11.74,0,0,0,3.4-2,13.7,13.7,0,0,0,1.42-1.43l0.56-.64,5-6.18c1.74-2.16,3.37-4.2,4.9-6.21,0.51-.66,1-1.32,1.49-2,1.58-2.15,3-4.16,4.2-6.12l0.87-1.53,1-1.65c0.35-.59.71-1.17,1-1.79,1-1.94,1.92-3.82,2.73-5.75a15.54,15.54,0,0,0,.76-2.52,71.43,71.43,0,0,0,1.27-10.3c0.19-2.7.34-5.59,0.48-8.6L104.36,74c0.09-1.7.18-3.4,0.29-5.12,0-.42.2-2.55,0.2-2.55,0.14-1.92.27-3.85,0.46-5.74l0.09-.88c0.15-1.55.29-3.16,0.43-4.78h0c0.18-2.21.36-4.45,0.51-6.72v0c0.2-3.11.36-6,.48-8.66,0.11-2.31.18-4.36,0.23-6.14,0.12-4,.12-5.49.12-5.56V27.7c0.09-.88.23-2.25,0.4-3.8l3.19-1.09c0.32-.11,7.33-2.42,20.22-2.84,0.34,0,.67,0,1,0,1,0,2,0,3,0,1.57,0,3.15,0,4.75.09l1.2,0.06q3.11,0.13,6.28.42l0.73,0.06c0.91,0.08,1.81.16,2.73,0.26l0.59-2.53c1.21-5.1,1.52-6.17,1.52-6.17C112,1.64,89.76,9.18,89.76,9.18Z" style="fill:none"/></clipPath><clipPath id="clip-path-2" transform="translate(3.09)"><path d="M175.57,122.46c-0.28-1-.56-2.08-0.87-3.14-0.05-.18-0.12-0.37-0.17-0.55-0.51-1.71-1.06-3.44-1.62-5.19-0.09-.29-0.17-0.57-0.27-0.87-0.88-2.72-1.8-5.49-2.7-8.32-0.09-.27-0.17-0.55-0.24-0.83a45.92,45.92,0,0,1-1.23-11.68c0-2.75.14-5.69,0.38-8.75,0.11-1.38.27-2.81,0.42-4.23h0c0.21-2,.45-4,0.73-6.05,0.09-.69.17-1.37,0.27-2.06,0.42-2.9.89-5.82,1.4-8.69,0.66-3.78,1.39-7.48,2.11-11,0.61-2.92,1.21-5.7,1.79-8.26,0.51-2.25.95-4.15,1.33-5.75,1.21-5.1,1.53-6.17,1.53-6.17C137.62,20.49,115.37,28,115.37,28s0,1.48-.13,5.71Q115.16,36.45,115,40c-0.12,2.66-.27,5.61-0.48,8.77-0.24,3.72-.56,7.7-1,11.8,0,0.26-.05.53-0.08,0.79-0.2,2-.34,4-0.48,6-0.05.69-.12,1.38-0.17,2.08-0.11,1.69-.2,3.38-0.29,5.05-0.11,2.1-.21,4.18-0.31,6.21-0.15,3.05-.3,6-0.49,8.72a76.17,76.17,0,0,1-1.4,11.12,19.94,19.94,0,0,1-1,3.38c-0.91,2.18-1.89,4.21-2.92,6.16-0.52,1-1.11,1.91-1.66,2.87-0.13.23-.26,0.46-0.4,0.69h0l0,0.07c-0.33.56-.64,1.15-1,1.7-1.38,2.19-2.85,4.32-4.44,6.46q-0.75,1-1.53,2c-1.56,2-3.22,4.13-5,6.31l-2.55,3.15-0.43.53-2.12,2.62-0.09.1c-0.17.21-.35,0.39-0.52,0.59a18.31,18.31,0,0,1-2,2,17.35,17.35,0,0,1-4.87,2.9,28.83,28.83,0,0,1-8.41,1.7c-1.57.12-3.19,0.18-4.86,0.23-2.59.08-5.29,0.14-8.11,0.36a53.81,53.81,0,0,0-8.55,1.31,42.56,42.56,0,0,0-5.36,1.66c-16.62,6.39-14.66,25.94-3.59,32.09,0.8,0.45,1.73.91,2.73,1.37h0c0.79,0.37,1.62.74,2.52,1.11,1.95,0.8,4.13,1.58,6.53,2.3,1.11,0.33,2.27.65,3.46,0.95h0l21.15,2.35A61.34,61.34,0,0,0,93.06,185a54.46,54.46,0,0,0,8.72-3.48,53.88,53.88,0,0,0,5.3-3.08c2.42-1.6,4.78-3,7.09-4.25a93.13,93.13,0,0,1,8.92-4.21,117.7,117.7,0,0,1,16.5-5.17c1.3-.32,2.53-0.6,3.78-0.9,3.26-.77,6.42-1.51,9.41-2.34,1.33-.37,2.63-0.76,3.91-1.19a40.42,40.42,0,0,0,13.6-7.37,20.32,20.32,0,0,0,5.47-7,24.74,24.74,0,0,0,1.87-12.59A63.82,63.82,0,0,0,175.57,122.46Zm0.12-85.6,1,0.21-1-.21h0Z" style="fill:none"/></clipPath></defs><title>socks</title><path d="M192.41,138.14c-0.28-1-.56-2.08-0.87-3.14-0.05-.18-0.12-0.37-0.17-0.55-0.51-1.71-1.06-3.44-1.62-5.19-0.09-.29-0.17-0.57-0.27-0.87-0.88-2.72-1.8-5.49-2.7-8.32-0.09-.27-0.17-0.55-0.24-0.83a45.92,45.92,0,0,1-1.23-11.68c0-2.75.14-5.69,0.38-8.75,0.11-1.38.27-2.81,0.42-4.23h0c0.21-2,.45-4,0.73-6.05,0.09-.69.17-1.37,0.27-2.06,0.42-2.9.89-5.82,1.4-8.69,0.66-3.78,1.39-7.48,2.11-11,0.61-2.92,1.21-5.7,1.79-8.26,0.51-2.25.95-4.15,1.33-5.75,1.21-5.1,1.53-6.17,1.53-6.17-40.81-10.45-63.06-2.91-63.06-2.91s0,1.48-.13,5.71q-0.08,2.71-.23,6.22c-0.12,2.66-.27,5.61-0.48,8.77-0.24,3.72-.56,7.7-1,11.8,0,0.26-.05.53-0.08,0.79-0.2,2-.34,4-0.48,6-0.05.69-.12,1.38-0.17,2.08-0.11,1.69-.2,3.38-0.29,5.05-0.11,2.1-.21,4.18-0.31,6.21-0.15,3.05-.3,6-0.49,8.72a76.17,76.17,0,0,1-1.4,11.12,19.94,19.94,0,0,1-1,3.38c-0.91,2.18-1.89,4.21-2.92,6.16-0.52,1-1.11,1.91-1.66,2.87-0.13.23-.26,0.46-0.4,0.69h0l0,0.07c-0.33.56-.64,1.15-1,1.7-1.38,2.19-2.85,4.32-4.44,6.46q-0.75,1-1.53,2c-1.56,2-3.22,4.13-5,6.31L106.64,149l-0.43.53-2.12,2.62-0.09.1c-0.17.21-.35,0.39-0.52,0.59a18.31,18.31,0,0,1-2,2,17.35,17.35,0,0,1-4.87,2.9,28.83,28.83,0,0,1-8.41,1.7c-1.57.12-3.19,0.18-4.86,0.23-2.59.08-5.29,0.14-8.11,0.36a53.81,53.81,0,0,0-8.55,1.31A42.56,42.56,0,0,0,61.35,163c-16.62,6.39-14.66,25.94-3.59,32.09,0.8,0.45,1.73.91,2.73,1.37h0c0.79,0.37,1.62.74,2.52,1.11,1.95,0.8,4.13,1.58,6.53,2.3,1.11,0.33,2.27.65,3.46,0.95h0l21.15,2.35a61.34,61.34,0,0,0,15.74-2.52,54.46,54.46,0,0,0,8.72-3.48,53.88,53.88,0,0,0,5.3-3.08c2.42-1.6,4.78-3,7.09-4.25a93.13,93.13,0,0,1,8.92-4.21,117.7,117.7,0,0,1,16.5-5.17c1.3-.32,2.53-0.6,3.78-0.9,3.26-.77,6.42-1.51,9.41-2.34,1.33-.37,2.63-0.76,3.91-1.19a40.42,40.42,0,0,0,13.6-7.37,20.32,20.32,0,0,0,5.47-7A24.74,24.74,0,0,0,194.47,149,64,64,0,0,0,192.41,138.14Zm0.12-85.6,1,0.21-1-.21h0Z" transform="translate(3.09)" style="fill:#004b8d"/><path d="M175.55,122.54c-0.28-1-.56-2.08-0.87-3.14-0.05-.18-0.12-0.37-0.17-0.55-0.51-1.71-1.06-3.44-1.62-5.19-0.09-.29-0.17-0.57-0.27-0.87-0.88-2.72-1.8-5.49-2.7-8.32-0.09-.27-0.17-0.55-0.24-0.83A45.92,45.92,0,0,1,168.45,92c0-2.75.14-5.69,0.38-8.75,0.11-1.38.27-2.81,0.42-4.23h0c0.21-2,.45-4,0.73-6.05,0.09-.69.17-1.37,0.27-2.06,0.42-2.9.89-5.82,1.4-8.69,0.66-3.78,1.39-7.48,2.11-11,0.61-2.92,1.21-5.7,1.79-8.26,0.51-2.25.95-4.15,1.33-5.75,1.21-5.1,1.53-6.17,1.53-6.17-40.81-10.45-63.06-2.91-63.06-2.91s0,1.48-.13,5.71Q115.14,36.53,115,40c-0.12,2.66-.27,5.61-0.48,8.77-0.24,3.72-.56,7.7-1,11.8,0,0.26-.05.53-0.08,0.79-0.2,2-.34,4-0.48,6-0.05.69-.12,1.38-0.17,2.08-0.11,1.69-.2,3.38-0.29,5.05-0.11,2.1-.21,4.18-0.31,6.21-0.15,3.05-.3,6-0.49,8.72a76.17,76.17,0,0,1-1.4,11.12,19.94,19.94,0,0,1-1,3.38c-0.91,2.18-1.89,4.21-2.92,6.16-0.52,1-1.11,1.91-1.66,2.87-0.13.23-.26,0.46-0.4,0.69h0l0,0.07c-0.33.56-.64,1.15-1,1.7-1.38,2.19-2.85,4.32-4.44,6.46q-0.75,1-1.53,2c-1.56,2-3.22,4.13-5,6.31l-2.55,3.15-0.43.53-2.12,2.62-0.09.1c-0.17.21-.35,0.39-0.52,0.59a18.31,18.31,0,0,1-2,2,17.35,17.35,0,0,1-4.87,2.9,28.83,28.83,0,0,1-8.41,1.7c-1.57.12-3.19,0.18-4.86,0.23-2.59.08-5.29,0.14-8.11,0.36a53.81,53.81,0,0,0-8.55,1.31,42.56,42.56,0,0,0-5.36,1.66c-16.62,6.39-14.66,25.94-3.59,32.09,0.8,0.45,1.73.91,2.73,1.37h0c0.79,0.37,1.62.74,2.52,1.11,1.95,0.8,4.13,1.58,6.53,2.3,1.11,0.33,2.27.65,3.46,0.95h0l21.15,2.35A61.34,61.34,0,0,0,93,185.06a54.46,54.46,0,0,0,8.72-3.48,53.88,53.88,0,0,0,5.3-3.08c2.42-1.6,4.78-3,7.09-4.25a93.13,93.13,0,0,1,8.92-4.21,117.7,117.7,0,0,1,16.5-5.17c1.3-.32,2.53-0.6,3.78-0.9,3.26-.77,6.42-1.51,9.41-2.34,1.33-.37,2.63-0.76,3.91-1.19a40.42,40.42,0,0,0,13.6-7.37,20.32,20.32,0,0,0,5.47-7,24.74,24.74,0,0,0,1.87-12.59A64.19,64.19,0,0,0,175.55,122.54Zm0.12-85.6,1,0.21-1-.21h0Z" transform="translate(3.09)" style="fill:#fff;stroke:#fff;stroke-miterlimit:10;stroke-width:13.28339958190918px"/><path d="M89.69,9.28s0,1.48-.13,5.71q-0.08,2.71-.23,6.22c-0.12,2.66-.27,5.61-0.48,8.77-0.24,3.71-.56,7.7-1,11.79,0,0.26-.05.53-0.08,0.79-0.2,2-.34,4-0.48,6-0.05.69-.12,1.38-0.17,2.07C87,52.35,87,54,86.87,55.71h0c-0.11,2.1-.21,4.18-0.31,6.21-0.15,3.05-.3,6-0.49,8.72a76.17,76.17,0,0,1-1.4,11.12,19.94,19.94,0,0,1-1,3.38c-0.91,2.18-1.89,4.21-2.92,6.16-0.52,1-1.11,1.91-1.66,2.87-0.13.23-.26,0.46-0.4,0.69h0c-0.06-.06-0.09,0,0,0.07-0.33.56-.64,1.15-1,1.7-1.38,2.19-2.85,4.32-4.44,6.46q-0.75,1-1.53,2c-1.56,2-3.22,4.13-5,6.31l-2.55,3.15-0.43.54-2.12,2.62-0.09.1c-0.17.21-.35,0.39-0.52,0.59a18.31,18.31,0,0,1-2,2,17.35,17.35,0,0,1-4.87,2.9,28.83,28.83,0,0,1-8.41,1.7c-1.57.12-3.19,0.18-4.86,0.23-2.59.08-5.29,0.14-8.11,0.36a53.81,53.81,0,0,0-8.55,1.31,42.56,42.56,0,0,0-5.36,1.66C2.21,135,4.17,154.51,15.24,160.66,16,161.11,17,161.57,18,162h0c0.79,0.37,1.62.74,2.52,1.11,1.12,0.46,2.34.9,3.61,1.34,0-.73,0-1.46,0-2.19a22.16,22.16,0,0,1,2.37-8.48h0a24.1,24.1,0,0,1,13.15-11.52,48.82,48.82,0,0,1,6-1.87A59.41,59.41,0,0,1,55,139c2.61-.2,5.07-0.28,7.45-0.35l0.92,0c1.58-.05,3.12-0.1,4.61-0.22A23.36,23.36,0,0,0,74.89,137a11.74,11.74,0,0,0,3.4-2,13.7,13.7,0,0,0,1.42-1.43l0.56-.64,5-6.18c1.74-2.16,3.37-4.2,4.9-6.21,0.51-.66,1-1.32,1.49-2,1.58-2.15,3-4.16,4.2-6.12l0.87-1.53,1-1.65c0.35-.59.71-1.17,1-1.79,1-1.94,1.92-3.82,2.73-5.75a15.54,15.54,0,0,0,.76-2.52,71.43,71.43,0,0,0,1.27-10.3c0.19-2.7.34-5.59,0.48-8.6l0.31-6.23c0.09-1.7.18-3.4,0.29-5.12,0-.42.2-2.55,0.2-2.55,0.14-1.92.27-3.85,0.46-5.74l0.09-.88c0.15-1.55.29-3.16,0.43-4.78h0c0.18-2.21.36-4.45,0.51-6.72v0c0.2-3.11.36-6,.48-8.66,0.11-2.31.18-4.36,0.23-6.14,0.12-4,.12-5.49.12-5.56V27.8c0.09-.88.23-2.25,0.4-3.8l3.19-1.09c0.32-.11,7.33-2.42,20.22-2.84,0.34,0,.67,0,1,0,1,0,2,0,3,0,1.57,0,3.15,0,4.75.09l1.2,0.06q3.11,0.13,6.28.42l0.73,0.06c0.91,0.08,1.81.16,2.73,0.26l0.59-2.53c1.21-5.1,1.52-6.17,1.52-6.17C111.94,1.73,89.69,9.28,89.69,9.28Z" transform="translate(3.09)" style="fill:#fff;stroke:#fff;stroke-miterlimit:10;stroke-width:13.28339958190918px"/><path d="M175.57,122.46c-0.28-1-.56-2.08-0.87-3.14-0.05-.18-0.12-0.37-0.17-0.55-0.51-1.71-1.06-3.44-1.62-5.19-0.09-.29-0.17-0.57-0.27-0.87-0.88-2.72-1.8-5.49-2.7-8.32-0.09-.27-0.17-0.55-0.24-0.83a45.92,45.92,0,0,1-1.23-11.68c0-2.75.14-5.69,0.38-8.75,0.11-1.38.27-2.81,0.42-4.23h0c0.21-2,.45-4,0.73-6.05,0.09-.69.17-1.37,0.27-2.06,0.42-2.9.89-5.82,1.4-8.69,0.66-3.78,1.39-7.48,2.11-11,0.61-2.92,1.21-5.7,1.79-8.26,0.51-2.25.95-4.15,1.33-5.75,1.21-5.1,1.53-6.17,1.53-6.17C137.62,20.49,115.37,28,115.37,28s0,1.48-.13,5.71Q115.16,36.45,115,40c-0.12,2.66-.27,5.61-0.48,8.77-0.24,3.72-.56,7.7-1,11.8,0,0.26-.05.53-0.08,0.79-0.2,2-.34,4-0.48,6-0.05.69-.12,1.38-0.17,2.08-0.11,1.69-.2,3.38-0.29,5.05-0.11,2.1-.21,4.18-0.31,6.21-0.15,3.05-.3,6-0.49,8.72a76.17,76.17,0,0,1-1.4,11.12,19.94,19.94,0,0,1-1,3.38c-0.91,2.18-1.89,4.21-2.92,6.16-0.52,1-1.11,1.91-1.66,2.87-0.13.23-.26,0.46-0.4,0.69h0l0,0.07c-0.33.56-.64,1.15-1,1.7-1.38,2.19-2.85,4.32-4.44,6.46q-0.75,1-1.53,2c-1.56,2-3.22,4.13-5,6.31l-2.55,3.15-0.43.53-2.12,2.62-0.09.1c-0.17.21-.35,0.39-0.52,0.59a18.31,18.31,0,0,1-2,2,17.35,17.35,0,0,1-4.87,2.9,28.83,28.83,0,0,1-8.41,1.7c-1.57.12-3.19,0.18-4.86,0.23-2.59.08-5.29,0.14-8.11,0.36a53.81,53.81,0,0,0-8.55,1.31,42.56,42.56,0,0,0-5.36,1.66c-16.62,6.39-14.66,25.94-3.59,32.09,0.8,0.45,1.73.91,2.73,1.37h0c0.79,0.37,1.62.74,2.52,1.11,1.95,0.8,4.13,1.58,6.53,2.3,1.11,0.33,2.27.65,3.46,0.95h0l21.15,2.35A61.34,61.34,0,0,0,93.06,185a54.46,54.46,0,0,0,8.72-3.48,53.88,53.88,0,0,0,5.3-3.08c2.42-1.6,4.78-3,7.09-4.25a93.13,93.13,0,0,1,8.92-4.21,117.7,117.7,0,0,1,16.5-5.17c1.3-.32,2.53-0.6,3.78-0.9,3.26-.77,6.42-1.51,9.41-2.34,1.33-.37,2.63-0.76,3.91-1.19a40.42,40.42,0,0,0,13.6-7.37,20.32,20.32,0,0,0,5.47-7,24.74,24.74,0,0,0,1.87-12.59A63.82,63.82,0,0,0,175.57,122.46Zm0.12-85.6,1,0.21-1-.21h0Z" transform="translate(3.09)" style="fill:#004b8d"/><path d="M89.72,9.19s0,1.48-.13,5.71q-0.08,2.71-.23,6.22c-0.12,2.66-.27,5.61-0.48,8.77-0.24,3.71-.56,7.7-1,11.79,0,0.26-.05.53-0.08,0.79-0.2,2-.34,4-0.48,6-0.05.69-.12,1.38-0.17,2.07-0.11,1.69-.2,3.38-0.29,5.05h0c-0.11,2.1-.21,4.18-0.31,6.21-0.15,3.05-.3,6-0.49,8.72a76.17,76.17,0,0,1-1.4,11.12,19.94,19.94,0,0,1-1,3.38c-0.91,2.18-1.89,4.21-2.92,6.16-0.52,1-1.11,1.91-1.66,2.87-0.13.23-.26,0.46-0.4,0.69h0l-0.18-.19c0.05,0.08.09,0.18,0.14,0.26-0.33.56-.64,1.15-1,1.7-1.38,2.19-2.85,4.32-4.44,6.46q-0.75,1-1.53,2c-1.56,2-3.22,4.13-5,6.31l-2.55,3.15-0.43.54-2.12,2.62-0.09.1c-0.17.21-.35,0.39-0.52,0.59a18.31,18.31,0,0,1-2,2,17.35,17.35,0,0,1-4.87,2.9,28.83,28.83,0,0,1-8.41,1.7c-1.57.12-3.19,0.18-4.86,0.23-2.59.08-5.29,0.14-8.11,0.36a53.81,53.81,0,0,0-8.55,1.31,42.56,42.56,0,0,0-5.36,1.66c-16.62,6.39-14.66,25.94-3.59,32.09,0.8,0.45,1.73.91,2.73,1.37h0c0.79,0.37,1.62.74,2.52,1.11,1.12,0.46,2.34.9,3.61,1.34,0-.73,0-1.46,0-2.19a22.16,22.16,0,0,1,2.37-8.48h0a24.1,24.1,0,0,1,13.15-11.52,48.82,48.82,0,0,1,6-1.87,59.41,59.41,0,0,1,9.38-1.44c2.61-.2,5.07-0.28,7.45-0.35l0.92,0c1.58-.05,3.12-0.1,4.61-0.22a23.36,23.36,0,0,0,6.87-1.35,11.74,11.74,0,0,0,3.4-2,13.7,13.7,0,0,0,1.42-1.43l0.56-.64,5-6.18c1.74-2.16,3.37-4.2,4.9-6.21,0.51-.66,1-1.32,1.49-2,1.58-2.15,3-4.16,4.2-6.12l0.87-1.53,1-1.65c0.35-.59.71-1.17,1-1.79,1-1.94,1.92-3.82,2.73-5.75a15.54,15.54,0,0,0,.76-2.52,71.43,71.43,0,0,0,1.27-10.3c0.19-2.7.34-5.59,0.48-8.6L104.32,74c0.09-1.7.18-3.4,0.29-5.12,0-.42.2-2.55,0.2-2.55,0.14-1.92.27-3.85,0.46-5.74l0.09-.88c0.15-1.55.29-3.16,0.43-4.78h0c0.18-2.21.36-4.45,0.51-6.72v0c0.2-3.11.36-6,.48-8.66,0.11-2.31.18-4.36,0.23-6.14,0.12-4,.12-5.49.12-5.56V27.69c0.09-.88.23-2.25,0.4-3.8l3.19-1.09C111,22.69,118,20.38,130.94,20c0.34,0,.67,0,1,0,1,0,2,0,3,0,1.57,0,3.15,0,4.75.09L140.9,20q3.11,0.13,6.28.42l0.73,0.06c0.91,0.08,1.81.16,2.73,0.26l0.59-2.53c1.21-5.1,1.52-6.17,1.52-6.17C112,1.65,89.72,9.19,89.72,9.19Z" transform="translate(3.09)" style="fill:#148dd8"/><g style="clip-path:url(#clip-path)"><path d="M101.35,113.5a0.25,0.25,0,0,0,0-.07h0l-0.18-.19A2.15,2.15,0,0,1,101.35,113.5Z" transform="translate(3.09)" style="fill:#148dd8"/><path d="M104.28,113.7a0.25,0.25,0,0,0,0-.07l-0.18-.19C104.19,113.52,104.23,113.61,104.28,113.7Z" transform="translate(3.09)" style="fill:#004b8c"/><path d="M100.48,22.1l-2-2a1,1,0,0,1-.28-0.67V18.58a1,1,0,0,0-1-.95l-0.64.05a1,1,0,0,1-.75-0.28l-2.16-2.16a1,1,0,0,1,0-1.36l2.32-2.32a1,1,0,0,1,1.36,0l6.85,6.85a1,1,0,0,1,0,1.36l-2.32,2.32A1,1,0,0,1,100.48,22.1Z" transform="translate(3.09)" style="fill:#004b8d"/><path d="M100.48,39.34l-2-2a1,1,0,0,1-.28-0.67V35.82a1,1,0,0,0-1-.95l-0.64.05a1,1,0,0,1-.75-0.28l-2.16-2.16a1,1,0,0,1,0-1.36l2.32-2.32a1,1,0,0,1,1.36,0l6.85,6.85a1,1,0,0,1,0,1.36l-2.32,2.32A1,1,0,0,1,100.48,39.34Z" transform="translate(3.09)" style="fill:#004b8d"/><path d="M100.48,56.58l-2-2a1,1,0,0,1-.28-0.67V53.06a1,1,0,0,0-1-.95l-0.64.05a1,1,0,0,1-.75-0.28l-2.16-2.16a1,1,0,0,1,0-1.36L95.94,46a1,1,0,0,1,1.36,0l6.85,6.85a1,1,0,0,1,0,1.36l-2.32,2.32A1,1,0,0,1,100.48,56.58Z" transform="translate(3.09)" style="fill:#004b8d"/><path d="M100.48,73.82l-2-2a1,1,0,0,1-.28-0.67V70.3a1,1,0,0,0-1-.95l-0.64.05a1,1,0,0,1-.75-0.28L93.62,67a1,1,0,0,1,0-1.36l2.32-2.32a1,1,0,0,1,1.36,0l6.85,6.85a1,1,0,0,1,0,1.36l-2.32,2.32A0.93,0.93,0,0,1,100.48,73.82Z" transform="translate(3.09)" style="fill:#004b8d"/><path d="M100.48,91.06l-2-2a1,1,0,0,1-.28-0.67V87.54a1,1,0,0,0-1-.95l-0.64.05a1,1,0,0,1-.75-0.28L93.62,84.2a1,1,0,0,1,0-1.36l2.32-2.32a1,1,0,0,1,1.36,0l6.85,6.85a1,1,0,0,1,0,1.36L101.83,91A0.93,0.93,0,0,1,100.48,91.06Z" transform="translate(3.09)" style="fill:#004b8d"/><path d="M100.48,108.3l-2-2a1,1,0,0,1-.28-0.67v-0.86a1,1,0,0,0-1-.95l-0.64.05a1,1,0,0,1-.75-0.28l-2.16-2.16a1,1,0,0,1,0-1.36l2.32-2.32a1,1,0,0,1,1.36,0l6.85,6.85a1,1,0,0,1,0,1.36l-2.32,2.32A0.93,0.93,0,0,1,100.48,108.3Z" transform="translate(3.09)" style="fill:#004b8d"/><path d="M86.95,26.76l-2-2a1,1,0,0,1-.28-0.67V23.24a1,1,0,0,0-1-.95L83,22.34a1,1,0,0,1-.75-0.28L80.09,19.9a1,1,0,0,1,0-1.36l2.32-2.32a1,1,0,0,1,1.36,0l6.85,6.85a1,1,0,0,1,0,1.36L88.3,26.75A0.93,0.93,0,0,1,86.95,26.76Z" transform="translate(3.09)" style="fill:#004b8d"/><path d="M129.29,20.81L127.53,19a0.81,0.81,0,0,1-.23-0.61l0-.8a0.79,0.79,0,0,0-.91-0.84l-0.61.08a0.85,0.85,0,0,1-.69-0.22l-1.91-1.91a0.9,0.9,0,0,1,.07-1.27l2.3-2.3a0.9,0.9,0,0,1,1.27-.07l6.07,6.07a0.9,0.9,0,0,1-.07,1.27l-2.3,2.3A0.91,0.91,0,0,1,129.29,20.81Z" transform="translate(3.09)" style="fill:#004b8d"/><path d="M116.35,25.91l-1.76-1.76a0.81,0.81,0,0,1-.23-0.61l0-.8a0.79,0.79,0,0,0-.91-0.84l-0.61.08a0.85,0.85,0,0,1-.69-0.22l-1.91-1.91a0.9,0.9,0,0,1,.07-1.27l2.3-2.3a0.9,0.9,0,0,1,1.27-.07L120,22.28a0.9,0.9,0,0,1-.07,1.27l-2.3,2.3A0.91,0.91,0,0,1,116.35,25.91Z" transform="translate(3.09)" style="fill:#004b8d"/><path d="M156.61,20.81L154.85,19a0.81,0.81,0,0,1-.23-0.61l0-.8a0.79,0.79,0,0,0-.91-0.84l-0.61.08a0.85,0.85,0,0,1-.69-0.22l-1.91-1.91a0.9,0.9,0,0,1,.07-1.27l2.3-2.3a0.9,0.9,0,0,1,1.27-.07l6.07,6.07a0.9,0.9,0,0,1-.07,1.27l-2.3,2.3A0.91,0.91,0,0,1,156.61,20.81Z" transform="translate(3.09)" style="fill:#004b8d"/><path d="M143.67,25.91l-1.76-1.76a0.81,0.81,0,0,1-.23-0.61l0-.8a0.79,0.79,0,0,0-.91-0.84L140.2,22a0.85,0.85,0,0,1-.69-0.22l-1.91-1.91a0.9,0.9,0,0,1,.07-1.27l2.3-2.3a0.9,0.9,0,0,1,1.27-.07l6.07,6.07a0.9,0.9,0,0,1-.07,1.27l-2.3,2.3A0.91,0.91,0,0,1,143.67,25.91Z" transform="translate(3.09)" style="fill:#004b8d"/><path d="M115.06,11.55L113.3,9.79a0.81,0.81,0,0,1-.23-0.61l0-.8a0.79,0.79,0,0,0-.91-0.84l-0.61.08a0.85,0.85,0,0,1-.69-0.22L109,5.49a0.9,0.9,0,0,1,.07-1.27l2.3-2.3a0.9,0.9,0,0,1,1.27-.07l6.07,6.07a0.9,0.9,0,0,1-.07,1.27l-2.3,2.3A0.9,0.9,0,0,1,115.06,11.55Z" transform="translate(3.09)" style="fill:#004b8d"/><path d="M142.38,11.55l-1.76-1.76a0.81,0.81,0,0,1-.23-0.61l0-.8a0.79,0.79,0,0,0-.91-0.84l-0.61.08a0.85,0.85,0,0,1-.69-0.22l-1.91-1.91a0.9,0.9,0,0,1,.07-1.27l2.3-2.3a0.9,0.9,0,0,1,1.27-.07L146,7.92a0.9,0.9,0,0,1-.07,1.27l-2.3,2.3A0.9,0.9,0,0,1,142.38,11.55Z" transform="translate(3.09)" style="fill:#004b8d"/><path d="M86.95,44l-2-2a1,1,0,0,1-.28-0.67V40.49a1,1,0,0,0-1-.95L83,39.59a1,1,0,0,1-.75-0.28l-2.16-2.16a1,1,0,0,1,0-1.36l2.32-2.32a1,1,0,0,1,1.36,0l6.85,6.85a1,1,0,0,1,0,1.36L88.3,44A1,1,0,0,1,86.95,44Z" transform="translate(3.09)" style="fill:#004b8d"/><path d="M86.95,61.25l-2-2a1,1,0,0,1-.28-0.67V57.73a1,1,0,0,0-1-.95L83,56.83a1,1,0,0,1-.75-0.28l-2.16-2.16a1,1,0,0,1,0-1.36l2.32-2.32a1,1,0,0,1,1.36,0l6.85,6.85a1,1,0,0,1,0,1.36L88.3,61.24A1,1,0,0,1,86.95,61.25Z" transform="translate(3.09)" style="fill:#004b8d"/><path d="M86.95,78.49l-2-2a1,1,0,0,1-.28-0.67V75a1,1,0,0,0-1-.95L83,74.07a1,1,0,0,1-.75-0.28l-2.16-2.16a1,1,0,0,1,0-1.36l2.32-2.32a1,1,0,0,1,1.36,0l6.85,6.85a1,1,0,0,1,0,1.36L88.3,78.48A1,1,0,0,1,86.95,78.49Z" transform="translate(3.09)" style="fill:#004b8d"/><path d="M86.95,95.73l-2-2a1,1,0,0,1-.28-0.67V92.21a1,1,0,0,0-1-.95L83,91.31A1,1,0,0,1,82.25,91l-2.16-2.16a1,1,0,0,1,0-1.36l2.32-2.32a1,1,0,0,1,1.36,0L90.62,92a1,1,0,0,1,0,1.36L88.3,95.72A1,1,0,0,1,86.95,95.73Z" transform="translate(3.09)" style="fill:#004b8d"/><path d="M86.95,113l-2-2a1,1,0,0,1-.28-0.67v-0.86a1,1,0,0,0-1-.95l-0.64.05a1,1,0,0,1-.75-0.28l-2.16-2.16a1,1,0,0,1,0-1.36l2.32-2.32a1,1,0,0,1,1.36,0l6.85,6.85a1,1,0,0,1,0,1.36L88.3,113A1,1,0,0,1,86.95,113Z" transform="translate(3.09)" style="fill:#004b8d"/><path d="M86.95,128.12l-2-2a1,1,0,0,1-.28-0.67V124.6a1,1,0,0,0-1-.95L83,123.7a1,1,0,0,1-.75-0.28l-2.16-2.16a1,1,0,0,1,0-1.36l2.32-2.32a1,1,0,0,1,1.36,0l6.85,6.85a1,1,0,0,1,0,1.36l-2.32,2.32A1,1,0,0,1,86.95,128.12Z" transform="translate(3.09)" style="fill:#004b8d"/><path d="M71,58l-2-2a1,1,0,0,1-.28-0.67V54.53a1,1,0,0,0-1-.95l-0.64.05a1,1,0,0,1-.75-0.28l-2.16-2.16a1,1,0,0,1,0-1.36l2.32-2.32a1,1,0,0,1,1.36,0l6.85,6.85a1,1,0,0,1,0,1.36L72.4,58A1,1,0,0,1,71,58Z" transform="translate(3.09)" style="fill:#004b8d"/><path d="M71,75.29l-2-2a1,1,0,0,1-.28-0.67V71.77a1,1,0,0,0-1-.95l-0.64.05a1,1,0,0,1-.75-0.28l-2.16-2.16a1,1,0,0,1,0-1.36l2.32-2.32a1,1,0,0,1,1.36,0l6.85,6.85a1,1,0,0,1,0,1.36L72.4,75.28A1,1,0,0,1,71,75.29Z" transform="translate(3.09)" style="fill:#004b8d"/><path d="M71,92.53l-2-2a1,1,0,0,1-.28-0.67V89a1,1,0,0,0-1-.95l-0.64.05a1,1,0,0,1-.75-0.28l-2.16-2.16a1,1,0,0,1,0-1.36L66.51,82a1,1,0,0,1,1.36,0l6.85,6.85a1,1,0,0,1,0,1.36L72.4,92.52A1,1,0,0,1,71,92.53Z" transform="translate(3.09)" style="fill:#004b8d"/><path d="M71,109.77l-2-2a1,1,0,0,1-.28-0.67v-0.86a1,1,0,0,0-1-.95l-0.64.05a1,1,0,0,1-.75-0.28l-2.16-2.16a1,1,0,0,1,0-1.36l2.32-2.32a1,1,0,0,1,1.36,0l6.85,6.85a1,1,0,0,1,0,1.36l-2.32,2.32A1,1,0,0,1,71,109.77Z" transform="translate(3.09)" style="fill:#004b8d"/><path d="M71,127l-2-2a1,1,0,0,1-.28-0.67v-0.86a1,1,0,0,0-1-.95l-0.64.05a1,1,0,0,1-.75-0.28l-2.16-2.16a1,1,0,0,1,0-1.36l2.32-2.32a1,1,0,0,1,1.36,0l6.85,6.85a1,1,0,0,1,0,1.36L72.4,127A1,1,0,0,1,71,127Z" transform="translate(3.09)" style="fill:#004b8d"/><path d="M71,144.25l-2-2a1,1,0,0,1-.28-0.67v-0.86a1,1,0,0,0-1-.95l-0.64.05a1,1,0,0,1-.75-0.28l-2.16-2.16a1,1,0,0,1,0-1.36l2.32-2.32a1,1,0,0,1,1.36,0l6.85,6.85a1,1,0,0,1,0,1.36l-2.32,2.32A1,1,0,0,1,71,144.25Z" transform="translate(3.09)" style="fill:#004b8d"/><path d="M38.78,58l-2-2a1,1,0,0,1-.28-0.67V54.53a1,1,0,0,0-1-.95l-0.64.05a1,1,0,0,1-.75-0.28l-2.16-2.16a1,1,0,0,1,0-1.36l2.32-2.32a1,1,0,0,1,1.36,0l6.85,6.85a1,1,0,0,1,0,1.36L40.13,58A1,1,0,0,1,38.78,58Z" transform="translate(3.09)" style="fill:#004b8d"/><path d="M38.78,75.29l-2-2a1,1,0,0,1-.28-0.67V71.77a1,1,0,0,0-1-.95l-0.64.05a1,1,0,0,1-.75-0.28l-2.16-2.16a1,1,0,0,1,0-1.36l2.32-2.32a1,1,0,0,1,1.36,0l6.85,6.85a1,1,0,0,1,0,1.36l-2.32,2.32A1,1,0,0,1,38.78,75.29Z" transform="translate(3.09)" style="fill:#004b8d"/><path d="M38.78,92.53l-2-2a1,1,0,0,1-.28-0.67V89a1,1,0,0,0-1-.95l-0.64.05a1,1,0,0,1-.75-0.28l-2.16-2.16a1,1,0,0,1,0-1.36L34.24,82a1,1,0,0,1,1.36,0l6.85,6.85a1,1,0,0,1,0,1.36l-2.32,2.32A1,1,0,0,1,38.78,92.53Z" transform="translate(3.09)" style="fill:#004b8d"/><path d="M38.78,109.77l-2-2a1,1,0,0,1-.28-0.67v-0.86a1,1,0,0,0-1-.95l-0.64.05a1,1,0,0,1-.75-0.28l-2.16-2.16a1,1,0,0,1,0-1.36l2.32-2.32a1,1,0,0,1,1.36,0l6.85,6.85a1,1,0,0,1,0,1.36l-2.32,2.32A1,1,0,0,1,38.78,109.77Z" transform="translate(3.09)" style="fill:#004b8d"/><path d="M38.78,127l-2-2a1,1,0,0,1-.28-0.67v-0.86a1,1,0,0,0-1-.95l-0.64.05a1,1,0,0,1-.75-0.28l-2.16-2.16a1,1,0,0,1,0-1.36l2.32-2.32a1,1,0,0,1,1.36,0l6.85,6.85a1,1,0,0,1,0,1.36L40.13,127A1,1,0,0,1,38.78,127Z" transform="translate(3.09)" style="fill:#004b8d"/><path d="M38.78,144.25l-2-2a1,1,0,0,1-.28-0.67v-0.86a1,1,0,0,0-1-.95l-0.64.05a1,1,0,0,1-.75-0.28l-2.16-2.16a1,1,0,0,1,0-1.36l2.32-2.32a1,1,0,0,1,1.36,0l6.85,6.85a1,1,0,0,1,0,1.36l-2.32,2.32A1,1,0,0,1,38.78,144.25Z" transform="translate(3.09)" style="fill:#004b8d"/><path d="M56,63.35l-2-2a1,1,0,0,1-.28-0.67V59.83a1,1,0,0,0-1-.95L52,58.93a1,1,0,0,1-.75-0.28L49.1,56.49a1,1,0,0,1,0-1.36l2.32-2.32a1,1,0,0,1,1.36,0l6.85,6.85a1,1,0,0,1,0,1.36l-2.32,2.32A1,1,0,0,1,56,63.35Z" transform="translate(3.09)" style="fill:#004b8d"/><path d="M56,80.59l-2-2a1,1,0,0,1-.28-0.67V77.07a1,1,0,0,0-1-.95L52,76.17a1,1,0,0,1-.75-0.28L49.1,73.73a1,1,0,0,1,0-1.36L51.42,70a1,1,0,0,1,1.36,0l6.85,6.85a1,1,0,0,1,0,1.36l-2.32,2.32A1,1,0,0,1,56,80.59Z" transform="translate(3.09)" style="fill:#004b8d"/><path d="M56,97.83l-2-2a1,1,0,0,1-.28-0.67V94.31a1,1,0,0,0-1-.95L52,93.41a1,1,0,0,1-.75-0.28L49.1,91a1,1,0,0,1,0-1.36l2.32-2.32a1,1,0,0,1,1.36,0l6.85,6.85a1,1,0,0,1,0,1.36l-2.32,2.32A1,1,0,0,1,56,97.83Z" transform="translate(3.09)" style="fill:#004b8d"/><path d="M56,115.07l-2-2a1,1,0,0,1-.28-0.67v-0.86a1,1,0,0,0-1-.95l-0.64.05a1,1,0,0,1-.75-0.28l-2.16-2.16a1,1,0,0,1,0-1.36l2.32-2.32a1,1,0,0,1,1.36,0l6.85,6.85a1,1,0,0,1,0,1.36l-2.32,2.32A1,1,0,0,1,56,115.07Z" transform="translate(3.09)" style="fill:#004b8d"/><path d="M56,132.31l-2-2a1,1,0,0,1-.28-0.67v-0.86a1,1,0,0,0-1-.95l-0.64.05a1,1,0,0,1-.75-0.28l-2.16-2.16a1,1,0,0,1,0-1.36l2.32-2.32a1,1,0,0,1,1.36,0l6.85,6.85a1,1,0,0,1,0,1.36l-2.32,2.32A1,1,0,0,1,56,132.31Z" transform="translate(3.09)" style="fill:#004b8d"/><path d="M56,149.55l-2-2a1,1,0,0,1-.28-0.67V146a1,1,0,0,0-1-.95l-0.64.05a1,1,0,0,1-.75-0.28l-2.16-2.16a1,1,0,0,1,0-1.36L51.42,139a1,1,0,0,1,1.36,0l6.85,6.85a1,1,0,0,1,0,1.36l-2.32,2.32A0.93,0.93,0,0,1,56,149.55Z" transform="translate(3.09)" style="fill:#004b8d"/><path d="M4,58l-2-2a1,1,0,0,1-.28-0.67V54.53a1,1,0,0,0-1-.95l-0.64.05a1,1,0,0,1-.75-0.28l-2.16-2.16a1,1,0,0,1,0-1.36l2.32-2.32a1,1,0,0,1,1.36,0l6.85,6.85a1,1,0,0,1,0,1.36L5.4,58A1,1,0,0,1,4,58Z" transform="translate(3.09)" style="fill:#004b8d"/><path d="M4,75.29l-2-2a1,1,0,0,1-.28-0.67V71.77a1,1,0,0,0-1-.95l-0.64.05a1,1,0,0,1-.75-0.28l-2.16-2.16a1,1,0,0,1,0-1.36l2.32-2.32a1,1,0,0,1,1.36,0L7.72,71.6a1,1,0,0,1,0,1.36L5.4,75.28A1,1,0,0,1,4,75.29Z" transform="translate(3.09)" style="fill:#004b8d"/><path d="M4,92.53l-2-2a1,1,0,0,1-.28-0.67V89a1,1,0,0,0-1-.95l-0.64.05a1,1,0,0,1-.75-0.28l-2.16-2.16a1,1,0,0,1,0-1.36L-0.49,82A1,1,0,0,1,.87,82l6.85,6.85a1,1,0,0,1,0,1.36L5.4,92.52A1,1,0,0,1,4,92.53Z" transform="translate(3.09)" style="fill:#004b8d"/><path d="M4,109.77l-2-2a1,1,0,0,1-.28-0.67v-0.86a1,1,0,0,0-1-.95l-0.64.05a1,1,0,0,1-.75-0.28l-2.16-2.16a1,1,0,0,1,0-1.36l2.32-2.32a1,1,0,0,1,1.36,0l6.85,6.85a1,1,0,0,1,0,1.36L5.4,109.76A1,1,0,0,1,4,109.77Z" transform="translate(3.09)" style="fill:#004b8d"/><path d="M4,127l-2-2a1,1,0,0,1-.28-0.67v-0.86a1,1,0,0,0-1-.95l-0.64.05a1,1,0,0,1-.75-0.28l-2.16-2.16a1,1,0,0,1,0-1.36l2.32-2.32a1,1,0,0,1,1.36,0l6.85,6.85a1,1,0,0,1,0,1.36L5.4,127A1,1,0,0,1,4,127Z" transform="translate(3.09)" style="fill:#004b8d"/><path d="M4,144.25l-2-2a1,1,0,0,1-.28-0.67v-0.86a1,1,0,0,0-1-.95l-0.64.05a1,1,0,0,1-.75-0.28l-2.16-2.16a1,1,0,0,1,0-1.36l2.32-2.32a1,1,0,0,1,1.36,0l6.85,6.85a1,1,0,0,1,0,1.36L5.4,144.24A1,1,0,0,1,4,144.25Z" transform="translate(3.09)" style="fill:#004b8d"/><path d="M21.24,63.35l-2-2A1,1,0,0,1,19,60.69V59.83a1,1,0,0,0-1-.95l-0.64.05a1,1,0,0,1-.75-0.28l-2.16-2.16a1,1,0,0,1,0-1.36l2.32-2.32a1,1,0,0,1,1.36,0l6.85,6.85a1,1,0,0,1,0,1.36l-2.32,2.32A1,1,0,0,1,21.24,63.35Z" transform="translate(3.09)" style="fill:#004b8d"/><path d="M21.24,80.59l-2-2A1,1,0,0,1,19,77.93V77.07a1,1,0,0,0-1-.95l-0.64.05a1,1,0,0,1-.75-0.28l-2.16-2.16a1,1,0,0,1,0-1.36L16.7,70a1,1,0,0,1,1.36,0l6.85,6.85a1,1,0,0,1,0,1.36l-2.32,2.32A1,1,0,0,1,21.24,80.59Z" transform="translate(3.09)" style="fill:#004b8d"/><path d="M21.24,97.83l-2-2A1,1,0,0,1,19,95.17V94.31a1,1,0,0,0-1-.95l-0.64.05a1,1,0,0,1-.75-0.28L14.38,91a1,1,0,0,1,0-1.36l2.32-2.32a1,1,0,0,1,1.36,0l6.85,6.85a1,1,0,0,1,0,1.36l-2.32,2.32A1,1,0,0,1,21.24,97.83Z" transform="translate(3.09)" style="fill:#004b8d"/><path d="M21.24,115.07l-2-2a1,1,0,0,1-.28-0.67v-0.86a1,1,0,0,0-1-.95l-0.64.05a1,1,0,0,1-.75-0.28l-2.16-2.16a1,1,0,0,1,0-1.36l2.32-2.32a1,1,0,0,1,1.36,0l6.85,6.85a1,1,0,0,1,0,1.36l-2.32,2.32A1,1,0,0,1,21.24,115.07Z" transform="translate(3.09)" style="fill:#004b8d"/><path d="M21.24,132.31l-2-2a1,1,0,0,1-.28-0.67v-0.86a1,1,0,0,0-1-.95l-0.64.05a1,1,0,0,1-.75-0.28l-2.16-2.16a1,1,0,0,1,0-1.36l2.32-2.32a1,1,0,0,1,1.36,0l6.85,6.85a1,1,0,0,1,0,1.36l-2.32,2.32A1,1,0,0,1,21.24,132.31Z" transform="translate(3.09)" style="fill:#004b8d"/><path d="M21.24,149.55l-2-2a1,1,0,0,1-.28-0.67V146a1,1,0,0,0-1-.95l-0.64.05a1,1,0,0,1-.75-0.28l-2.16-2.16a1,1,0,0,1,0-1.36L16.7,139a1,1,0,0,1,1.36,0l6.85,6.85a1,1,0,0,1,0,1.36l-2.32,2.32A0.93,0.93,0,0,1,21.24,149.55Z" transform="translate(3.09)" style="fill:#004b8d"/><path d="M21.24,166.15l-2-2a1,1,0,0,1-.28-0.67v-0.86a1,1,0,0,0-1-.95l-0.64.05a1,1,0,0,1-.75-0.28l-2.16-2.16a1,1,0,0,1,0-1.36l2.32-2.32a1,1,0,0,1,1.36,0l6.85,6.85a1,1,0,0,1,0,1.36l-2.32,2.32A0.93,0.93,0,0,1,21.24,166.15Z" transform="translate(3.09)" style="fill:#004b8d"/><path d="M101.41,113.31a0.25,0.25,0,0,0,0-.07h0l-0.18-.19C101.32,113.12,101.36,113.22,101.41,113.31Z" transform="translate(3.09)" style="fill:#148dd8"/></g><g style="clip-path:url(#clip-path-2)"><path d="M130.66,35.1a5.19,5.19,0,0,0-7.33,7.35h0l2.91,2.91L133.59,38l-2.93-2.93h0Z" transform="translate(3.09)" style="fill:#fff"/><circle cx="126.09" cy="34.94" r="2.19" style="fill:#cb0026"/><rect x="124" y="39.9" width="10.41" height="2.2" transform="translate(11.94 103.37) rotate(-45)" style="fill:#148dd8"/><path d="M147.82,35.1a5.19,5.19,0,0,0-7.33,7.35h0l2.91,2.91L150.75,38l-2.93-2.93h0Z" transform="translate(3.09)" style="fill:#fff"/><circle cx="143.24" cy="34.94" r="2.19" style="fill:#cb0026"/><rect x="141.16" y="39.89" width="10.41" height="2.2" transform="translate(16.97 115.5) rotate(-45)" style="fill:#148dd8"/><path d="M165,35.1a5.19,5.19,0,0,0-7.33,7.35h0l2.91,2.91L167.9,38,165,35.1h0Z" transform="translate(3.09)" style="fill:#fff"/><circle cx="160.4" cy="34.94" r="2.19" style="fill:#cb0026"/><rect x="158.31" y="39.9" width="10.41" height="2.2" transform="translate(21.99 127.63) rotate(-45)" style="fill:#148dd8"/><path d="M182.13,35.1a5.19,5.19,0,0,0-7.33,7.35h0l2.91,2.91L185.06,38l-2.93-2.93h0Z" transform="translate(3.09)" style="fill:#fff"/><circle cx="177.55" cy="34.94" r="2.19" style="fill:#cb0026"/><rect x="175.47" y="39.89" width="10.41" height="2.2" transform="translate(27.02 139.76) rotate(-45)" style="fill:#148dd8"/><path d="M123,50.86a5.19,5.19,0,0,0-7.33,7.35h0l2.91,2.91,7.34-7.34L123,50.86h0Z" transform="translate(3.09)" style="fill:#fff"/><circle cx="118.39" cy="50.7" r="2.19" style="fill:#cb0026"/><rect x="116.3" y="55.64" width="10.41" height="2.2" transform="translate(-1.45 102.54) rotate(-45)" style="fill:#148dd8"/><path d="M140.12,50.86a5.19,5.19,0,0,0-7.33,7.35h0l2.91,2.91L143,53.79l-2.93-2.93h0Z" transform="translate(3.09)" style="fill:#fff"/><circle cx="135.54" cy="50.7" r="2.19" style="fill:#cb0026"/><rect x="133.45" y="55.65" width="10.41" height="2.2" transform="translate(3.57 114.66) rotate(-45)" style="fill:#148dd8"/><path d="M157.27,50.86a5.19,5.19,0,0,0-7.33,7.35h0l2.91,2.91,7.34-7.34-2.93-2.93h0Z" transform="translate(3.09)" style="fill:#fff"/><circle cx="152.7" cy="50.7" r="2.19" style="fill:#cb0026"/><rect x="150.61" y="55.65" width="10.41" height="2.2" transform="translate(8.6 126.8) rotate(-45)" style="fill:#148dd8"/><path d="M174.43,50.86a5.19,5.19,0,0,0-7.33,7.35h0L170,61.13l7.34-7.34-2.93-2.93h0Z" transform="translate(3.09)" style="fill:#fff"/><circle cx="169.85" cy="50.7" r="2.19" style="fill:#cb0026"/><rect x="167.76" y="55.65" width="10.41" height="2.2" transform="translate(13.62 138.93) rotate(-45)" style="fill:#148dd8"/><path d="M130.66,67.66A5.19,5.19,0,0,0,123.33,75h0l2.91,2.91,7.34-7.34-2.93-2.93h0Z" transform="translate(3.09)" style="fill:#fff"/><circle cx="126.09" cy="67.5" r="2.19" style="fill:#cb0026"/><rect x="124" y="72.46" width="10.41" height="2.2" transform="translate(-11.08 112.91) rotate(-45)" style="fill:#148dd8"/><path d="M147.82,67.66A5.19,5.19,0,0,0,140.49,75h0l2.91,2.91,7.34-7.34-2.93-2.93h0Z" transform="translate(3.09)" style="fill:#fff"/><circle cx="143.24" cy="67.5" r="2.19" style="fill:#cb0026"/><rect x="141.16" y="72.45" width="10.41" height="2.2" transform="translate(-6.05 125.04) rotate(-45)" style="fill:#148dd8"/><path d="M165,67.66A5.19,5.19,0,0,0,157.64,75h0l2.91,2.91,7.34-7.34L165,67.66h0Z" transform="translate(3.09)" style="fill:#fff"/><circle cx="160.4" cy="67.5" r="2.19" style="fill:#cb0026"/><rect x="158.31" y="72.46" width="10.41" height="2.2" transform="translate(-1.03 137.17) rotate(-45)" style="fill:#148dd8"/><path d="M123,83.42a5.19,5.19,0,0,0-7.33,7.35h0l2.91,2.91,7.34-7.34L123,83.42h0Z" transform="translate(3.09)" style="fill:#fff"/><circle cx="118.39" cy="83.26" r="2.19" style="fill:#cb0026"/><rect x="116.3" y="88.2" width="10.41" height="2.2" transform="translate(-24.47 112.07) rotate(-45)" style="fill:#148dd8"/><path d="M140.12,83.42a5.19,5.19,0,0,0-7.33,7.35h0l2.91,2.91L143,86.35l-2.93-2.93h0Z" transform="translate(3.09)" style="fill:#fff"/><circle cx="135.54" cy="83.26" r="2.19" style="fill:#cb0026"/><rect x="133.45" y="88.21" width="10.41" height="2.2" transform="translate(-19.45 124.2) rotate(-45)" style="fill:#148dd8"/><path d="M157.27,83.42a5.19,5.19,0,0,0-7.33,7.35h0l2.91,2.91,7.34-7.34-2.93-2.93h0Z" transform="translate(3.09)" style="fill:#fff"/><circle cx="152.7" cy="83.26" r="2.19" style="fill:#cb0026"/><rect x="150.61" y="88.21" width="10.41" height="2.2" transform="translate(-14.42 136.33) rotate(-45)" style="fill:#148dd8"/><path d="M174.43,83.42a5.19,5.19,0,0,0-7.33,7.35h0L170,93.69l7.34-7.34-2.93-2.93h0Z" transform="translate(3.09)" style="fill:#fff"/><circle cx="169.85" cy="83.26" r="2.19" style="fill:#cb0026"/><rect x="167.76" y="88.21" width="10.41" height="2.2" transform="translate(-9.4 148.46) rotate(-45)" style="fill:#148dd8"/><path d="M130.66,98.12a5.19,5.19,0,0,0-7.33,7.35h0l2.91,2.91,7.34-7.34-2.93-2.93h0Z" transform="translate(3.09)" style="fill:#fff"/><circle cx="126.09" cy="97.96" r="2.19" style="fill:#cb0026"/><rect x="124" y="102.91" width="10.41" height="2.2" transform="translate(-32.61 121.82) rotate(-45)" style="fill:#148dd8"/><path d="M112.11,98.12a5.19,5.19,0,0,0-7.33,7.35h0l2.91,2.91L115,101l-2.93-2.93h0Z" transform="translate(3.09)" style="fill:#fff"/><circle cx="107.53" cy="97.96" r="2.19" style="fill:#cb0026"/><rect x="105.44" y="102.9" width="10.41" height="2.2" transform="translate(-38.05 108.7) rotate(-45)" style="fill:#148dd8"/><path d="M147.82,98.12a5.19,5.19,0,0,0-7.33,7.35h0l2.91,2.91,7.34-7.34-2.93-2.93h0Z" transform="translate(3.09)" style="fill:#fff"/><circle cx="143.24" cy="97.96" r="2.19" style="fill:#cb0026"/><rect x="141.15" y="102.9" width="10.41" height="2.2" transform="translate(-27.59 133.95) rotate(-45)" style="fill:#148dd8"/><path d="M165,98.12a5.19,5.19,0,0,0-7.33,7.35h0l2.91,2.91L167.9,101,165,98.12h0Z" transform="translate(3.09)" style="fill:#fff"/><circle cx="160.4" cy="97.96" r="2.19" style="fill:#cb0026"/><rect x="158.31" y="102.91" width="10.41" height="2.2" transform="translate(-22.57 146.08) rotate(-45)" style="fill:#148dd8"/><path d="M123,113.88a5.19,5.19,0,0,0-7.33,7.35h0l2.91,2.91,7.34-7.34L123,113.88h0Z" transform="translate(3.09)" style="fill:#fff"/><circle cx="118.39" cy="113.72" r="2.19" style="fill:#cb0026"/><rect x="116.3" y="118.66" width="10.41" height="2.2" transform="translate(-46.01 120.99) rotate(-45)" style="fill:#148dd8"/><path d="M140.12,113.88a5.19,5.19,0,0,0-7.33,7.35h0l2.91,2.91,7.34-7.34-2.93-2.93h0Z" transform="translate(3.09)" style="fill:#fff"/><circle cx="135.54" cy="113.72" r="2.19" style="fill:#cb0026"/><rect x="133.45" y="118.67" width="10.41" height="2.2" transform="translate(-40.99 133.12) rotate(-45)" style="fill:#148dd8"/><path d="M157.27,113.88a5.19,5.19,0,0,0-7.33,7.35h0l2.91,2.91,7.34-7.34-2.93-2.93h0Z" transform="translate(3.09)" style="fill:#fff"/><circle cx="152.7" cy="113.72" r="2.19" style="fill:#cb0026"/><rect x="150.61" y="118.66" width="10.41" height="2.2" transform="translate(-35.96 145.25) rotate(-45)" style="fill:#148dd8"/><path d="M174.43,113.88a5.19,5.19,0,0,0-7.33,7.35h0l2.91,2.91,7.34-7.34-2.93-2.93h0Z" transform="translate(3.09)" style="fill:#fff"/><circle cx="169.85" cy="113.72" r="2.19" style="fill:#cb0026"/><rect x="167.76" y="118.67" width="10.41" height="2.2" transform="translate(-30.94 157.38) rotate(-45)" style="fill:#148dd8"/><path d="M130.66,130a5.19,5.19,0,0,0-7.33,7.35h0l2.91,2.91,7.34-7.34L130.66,130h0Z" transform="translate(3.09)" style="fill:#fff"/><circle cx="126.09" cy="129.82" r="2.19" style="fill:#cb0026"/><rect x="124" y="134.77" width="10.41" height="2.2" transform="translate(-55.14 131.15) rotate(-45)" style="fill:#148dd8"/><path d="M147.82,130a5.19,5.19,0,0,0-7.33,7.35h0l2.91,2.91,7.34-7.34L147.82,130h0Z" transform="translate(3.09)" style="fill:#fff"/><circle cx="143.24" cy="129.82" r="2.19" style="fill:#cb0026"/><rect x="141.15" y="134.76" width="10.41" height="2.2" transform="translate(-50.11 143.28) rotate(-45)" style="fill:#148dd8"/><path d="M165,130a5.19,5.19,0,0,0-7.33,7.35h0l2.91,2.91,7.34-7.34L165,130h0Z" transform="translate(3.09)" style="fill:#fff"/><circle cx="160.4" cy="129.82" r="2.19" style="fill:#cb0026"/><rect x="158.31" y="134.77" width="10.41" height="2.2" transform="translate(-45.09 155.41) rotate(-45)" style="fill:#148dd8"/><path d="M182.13,130a5.19,5.19,0,0,0-7.33,7.35h0l2.91,2.91,7.34-7.34L182.13,130h0Z" transform="translate(3.09)" style="fill:#fff"/><circle cx="177.55" cy="129.82" r="2.19" style="fill:#cb0026"/><rect x="175.46" y="134.76" width="10.41" height="2.2" transform="translate(-40.07 167.55) rotate(-45)" style="fill:#148dd8"/><path d="M123,145.74a5.19,5.19,0,0,0-7.33,7.35h0l2.91,2.91,7.34-7.34L123,145.74h0Z" transform="translate(3.09)" style="fill:#fff"/><circle cx="118.39" cy="145.58" r="2.19" style="fill:#cb0026"/><rect x="116.3" y="150.52" width="10.41" height="2.2" transform="translate(-68.54 130.33) rotate(-45)" style="fill:#148dd8"/><path d="M140.12,145.74a5.19,5.19,0,0,0-7.33,7.35h0l2.91,2.91,7.34-7.34-2.93-2.93h0Z" transform="translate(3.09)" style="fill:#fff"/><circle cx="135.54" cy="145.58" r="2.19" style="fill:#cb0026"/><rect x="133.45" y="150.53" width="10.41" height="2.2" transform="translate(-63.52 142.45) rotate(-45)" style="fill:#148dd8"/><path d="M157.27,145.74a5.19,5.19,0,0,0-7.33,7.35h0l2.91,2.91,7.34-7.34-2.93-2.93h0Z" transform="translate(3.09)" style="fill:#fff"/><circle cx="152.7" cy="145.58" r="2.19" style="fill:#cb0026"/><rect x="150.61" y="150.52" width="10.41" height="2.2" transform="translate(-58.49 154.59) rotate(-45)" style="fill:#148dd8"/><path d="M174.43,145.74a5.19,5.19,0,0,0-7.33,7.35h0L170,156l7.34-7.34-2.93-2.93h0Z" transform="translate(3.09)" style="fill:#fff"/><circle cx="169.85" cy="145.58" r="2.19" style="fill:#cb0026"/><path d="M130.66,161.84a5.19,5.19,0,0,0-7.33,7.35h0l2.91,2.91,7.34-7.34-2.93-2.93h0Z" transform="translate(3.09)" style="fill:#fff"/><circle cx="126.09" cy="161.68" r="2.19" style="fill:#cb0026"/><rect x="124" y="166.63" width="10.41" height="2.2" transform="translate(-77.67 140.48) rotate(-45)" style="fill:#148dd8"/><path d="M147.82,161.84a5.19,5.19,0,0,0-7.33,7.35h0l2.91,2.91,7.34-7.34-2.93-2.93h0Z" transform="translate(3.09)" style="fill:#fff"/><circle cx="143.24" cy="161.68" r="2.19" style="fill:#cb0026"/><rect x="141.15" y="166.62" width="10.41" height="2.2" transform="translate(-72.64 152.62) rotate(-45)" style="fill:#148dd8"/><path d="M105.1,113.88a5.19,5.19,0,0,0-7.33,7.35h0l2.91,2.91,7.34-7.34-2.93-2.93h0Z" transform="translate(3.09)" style="fill:#fff"/><circle cx="100.53" cy="113.72" r="2.19" style="fill:#cb0026"/><rect x="98.44" y="118.67" width="10.41" height="2.2" transform="translate(-51.24 108.37) rotate(-45)" style="fill:#148dd8"/><path d="M112.81,130a5.19,5.19,0,0,0-7.33,7.35h0l2.91,2.91,7.34-7.34L112.81,130h0Z" transform="translate(3.09)" style="fill:#fff"/><circle cx="108.23" cy="129.82" r="2.19" style="fill:#cb0026"/><rect x="106.14" y="134.76" width="10.41" height="2.2" transform="translate(-60.37 118.53) rotate(-45)" style="fill:#148dd8"/><path d="M105.1,145.74a5.19,5.19,0,0,0-7.33,7.35h0l2.91,2.91,7.34-7.34-2.93-2.93h0Z" transform="translate(3.09)" style="fill:#fff"/><circle cx="100.53" cy="145.58" r="2.19" style="fill:#cb0026"/><rect x="98.44" y="150.53" width="10.41" height="2.2" transform="translate(-73.77 117.7) rotate(-45)" style="fill:#148dd8"/><path d="M112.81,161.84a5.19,5.19,0,0,0-7.33,7.35h0l2.91,2.91,7.34-7.34-2.93-2.93h0Z" transform="translate(3.09)" style="fill:#fff"/><circle cx="108.23" cy="161.68" r="2.19" style="fill:#cb0026"/><rect x="106.14" y="166.62" width="10.41" height="2.2" transform="translate(-82.9 127.86) rotate(-45)" style="fill:#148dd8"/><path d="M105.1,177.6a5.19,5.19,0,0,0-7.33,7.35h0l2.91,2.91,7.34-7.34-2.93-2.93h0Z" transform="translate(3.09)" style="fill:#fff"/><circle cx="100.53" cy="177.44" r="2.19" style="fill:#cb0026"/><rect x="98.44" y="182.39" width="10.41" height="2.2" transform="translate(-96.3 127.03) rotate(-45)" style="fill:#148dd8"/><path d="M94.95,130a5.19,5.19,0,0,0-7.33,7.35h0l2.91,2.91,7.34-7.34L94.95,130h0Z" transform="translate(3.09)" style="fill:#fff"/><circle cx="90.38" cy="129.82" r="2.19" style="fill:#cb0026"/><rect x="88.29" y="134.77" width="10.41" height="2.2" transform="translate(-65.6 105.9) rotate(-45)" style="fill:#148dd8"/><path d="M87.25,145.74a5.19,5.19,0,0,0-7.33,7.35h0L82.84,156l7.34-7.34-2.93-2.93h0Z" transform="translate(3.09)" style="fill:#fff"/><circle cx="82.67" cy="145.58" r="2.19" style="fill:#cb0026"/><rect x="80.59" y="150.52" width="10.41" height="2.2" transform="translate(-79 105.07) rotate(-45)" style="fill:#148dd8"/><path d="M94.95,161.84a5.19,5.19,0,0,0-7.33,7.35h0l2.91,2.91,7.34-7.34-2.93-2.93h0Z" transform="translate(3.09)" style="fill:#fff"/><circle cx="90.38" cy="161.68" r="2.19" style="fill:#cb0026"/><rect x="88.29" y="166.63" width="10.41" height="2.2" transform="translate(-88.13 115.23) rotate(-45)" style="fill:#148dd8"/><path d="M87.25,177.6a5.19,5.19,0,0,0-7.33,7.35h0l2.91,2.91,7.34-7.34-2.93-2.93h0Z" transform="translate(3.09)" style="fill:#fff"/><circle cx="82.67" cy="177.44" r="2.19" style="fill:#cb0026"/><rect x="80.59" y="182.38" width="10.41" height="2.2" transform="translate(-101.53 114.41) rotate(-45)" style="fill:#148dd8"/><path d="M69.39,145.74a5.19,5.19,0,0,0-7.33,7.35h0L65,156l7.34-7.34-2.93-2.93h0Z" transform="translate(3.09)" style="fill:#fff"/><circle cx="64.82" cy="145.58" r="2.19" style="fill:#cb0026"/><rect x="62.73" y="150.53" width="10.41" height="2.2" transform="translate(-84.23 92.45) rotate(-45)" style="fill:#148dd8"/><path d="M77.1,161.84a5.19,5.19,0,0,0-7.33,7.35h0l2.91,2.91L80,164.77l-2.93-2.93h0Z" transform="translate(3.09)" style="fill:#fff"/><circle cx="72.52" cy="161.68" r="2.19" style="fill:#cb0026"/><rect x="70.43" y="166.63" width="10.41" height="2.2" transform="translate(-93.36 102.61) rotate(-45)" style="fill:#148dd8"/><path d="M69.39,177.6a5.19,5.19,0,0,0-7.33,7.35h0L65,187.87l7.34-7.34-2.93-2.93h0Z" transform="translate(3.09)" style="fill:#fff"/><circle cx="64.82" cy="177.44" r="2.19" style="fill:#cb0026"/><rect x="62.73" y="182.39" width="10.41" height="2.2" transform="translate(-106.76 101.78) rotate(-45)" style="fill:#148dd8"/><path d="M51.54,145.74a5.19,5.19,0,0,0-7.33,7.35h0L47.13,156l7.34-7.34-2.93-2.93h0Z" transform="translate(3.09)" style="fill:#fff"/><circle cx="46.96" cy="145.58" r="2.19" style="fill:#cb0026"/><rect x="44.88" y="150.52" width="10.41" height="2.2" transform="translate(-89.46 79.82) rotate(-45)" style="fill:#148dd8"/><path d="M59.24,161.84a5.19,5.19,0,0,0-7.33,7.35h0l2.91,2.91,7.34-7.34-2.93-2.93h0Z" transform="translate(3.09)" style="fill:#fff"/><circle cx="54.67" cy="161.68" r="2.19" style="fill:#cb0026"/><rect x="52.58" y="166.63" width="10.41" height="2.2" transform="translate(-98.59 89.98) rotate(-45)" style="fill:#148dd8"/><path d="M51.54,177.6a5.19,5.19,0,0,0-7.33,7.35h0l2.91,2.91,7.34-7.34-2.93-2.93h0Z" transform="translate(3.09)" style="fill:#fff"/><circle cx="46.96" cy="177.44" r="2.19" style="fill:#cb0026"/><rect x="44.88" y="182.38" width="10.41" height="2.2" transform="translate(-111.98 89.15) rotate(-45)" style="fill:#148dd8"/><path d="M41.39,161.84a5.19,5.19,0,0,0-7.33,7.35h0L37,172.11l7.34-7.34-2.93-2.93h0Z" transform="translate(3.09)" style="fill:#fff"/><circle cx="36.81" cy="161.68" r="2.19" style="fill:#cb0026"/><rect x="34.72" y="166.63" width="10.41" height="2.2" transform="translate(-103.82 77.36) rotate(-45)" style="fill:#148dd8"/></g></svg>